%TF.GenerationSoftware,KiCad,Pcbnew,8.0.8*%
%TF.CreationDate,2025-02-16T19:09:12-05:00*%
%TF.ProjectId,EC10-Test-PCB,45433130-2d54-4657-9374-2d5043422e6b,rev?*%
%TF.SameCoordinates,Original*%
%TF.FileFunction,Copper,L1,Top*%
%TF.FilePolarity,Positive*%
%FSLAX46Y46*%
G04 Gerber Fmt 4.6, Leading zero omitted, Abs format (unit mm)*
G04 Created by KiCad (PCBNEW 8.0.8) date 2025-02-16 19:09:12*
%MOMM*%
%LPD*%
G01*
G04 APERTURE LIST*
G04 Aperture macros list*
%AMRoundRect*
0 Rectangle with rounded corners*
0 $1 Rounding radius*
0 $2 $3 $4 $5 $6 $7 $8 $9 X,Y pos of 4 corners*
0 Add a 4 corners polygon primitive as box body*
4,1,4,$2,$3,$4,$5,$6,$7,$8,$9,$2,$3,0*
0 Add four circle primitives for the rounded corners*
1,1,$1+$1,$2,$3*
1,1,$1+$1,$4,$5*
1,1,$1+$1,$6,$7*
1,1,$1+$1,$8,$9*
0 Add four rect primitives between the rounded corners*
20,1,$1+$1,$2,$3,$4,$5,0*
20,1,$1+$1,$4,$5,$6,$7,0*
20,1,$1+$1,$6,$7,$8,$9,0*
20,1,$1+$1,$8,$9,$2,$3,0*%
G04 Aperture macros list end*
%TA.AperFunction,SMDPad,CuDef*%
%ADD10RoundRect,0.025900X-0.159100X-0.159100X0.159100X-0.159100X0.159100X0.159100X-0.159100X0.159100X0*%
%TD*%
%TA.AperFunction,SMDPad,CuDef*%
%ADD11RoundRect,0.200000X-0.275000X0.200000X-0.275000X-0.200000X0.275000X-0.200000X0.275000X0.200000X0*%
%TD*%
%TA.AperFunction,ComponentPad*%
%ADD12O,1.700000X1.700000*%
%TD*%
%TA.AperFunction,ComponentPad*%
%ADD13R,1.700000X1.700000*%
%TD*%
%TA.AperFunction,ViaPad*%
%ADD14C,0.500000*%
%TD*%
%TA.AperFunction,Conductor*%
%ADD15C,0.200000*%
%TD*%
%TA.AperFunction,Conductor*%
%ADD16C,0.203200*%
%TD*%
G04 APERTURE END LIST*
D10*
%TO.P,D13,4,DOUT*%
%TO.N,Net-(D13-DOUT)*%
X74620000Y-47980000D03*
%TO.P,D13,3,VDD*%
%TO.N,+Vdc*%
X74620000Y-48650000D03*
%TO.P,D13,2,DIN*%
%TO.N,Net-(D12-DOUT)*%
X73950000Y-48650000D03*
%TO.P,D13,1,GND*%
%TO.N,GND*%
X73950000Y-47980000D03*
%TD*%
%TO.P,D11,4,DOUT*%
%TO.N,Net-(D11-DOUT)*%
X71920000Y-47980000D03*
%TO.P,D11,3,VDD*%
%TO.N,+Vdc*%
X71920000Y-48650000D03*
%TO.P,D11,2,DIN*%
%TO.N,Net-(D10-DOUT)*%
X71250000Y-48650000D03*
%TO.P,D11,1,GND*%
%TO.N,GND*%
X71250000Y-47980000D03*
%TD*%
%TO.P,D28,4,DOUT*%
%TO.N,Net-(D28-DOUT)*%
X94870000Y-47980000D03*
%TO.P,D28,3,VDD*%
%TO.N,+Vdc*%
X94870000Y-48650000D03*
%TO.P,D28,2,DIN*%
%TO.N,Net-(D27-DOUT)*%
X94200000Y-48650000D03*
%TO.P,D28,1,GND*%
%TO.N,GND*%
X94200000Y-47980000D03*
%TD*%
%TO.P,D1,4,DOUT*%
%TO.N,Net-(D1-DOUT)*%
X58420000Y-47980000D03*
%TO.P,D1,3,VDD*%
%TO.N,+Vdc*%
X58420000Y-48650000D03*
%TO.P,D1,2,DIN*%
%TO.N,Net-(D1-DIN)*%
X57750000Y-48650000D03*
%TO.P,D1,1,GND*%
%TO.N,GND*%
X57750000Y-47980000D03*
%TD*%
%TO.P,D32,4,DOUT*%
%TO.N,Net-(D32-DOUT)*%
X100270000Y-47980000D03*
%TO.P,D32,3,VDD*%
%TO.N,+Vdc*%
X100270000Y-48650000D03*
%TO.P,D32,2,DIN*%
%TO.N,Net-(D31-DOUT)*%
X99600000Y-48650000D03*
%TO.P,D32,1,GND*%
%TO.N,GND*%
X99600000Y-47980000D03*
%TD*%
D11*
%TO.P,R1,2*%
%TO.N,Net-(J1-Pin_2)*%
X58050000Y-51650000D03*
%TO.P,R1,1*%
%TO.N,Net-(D1-DIN)*%
X58050000Y-50000000D03*
%TD*%
D10*
%TO.P,D26,4,DOUT*%
%TO.N,Net-(D26-DOUT)*%
X92170000Y-47980000D03*
%TO.P,D26,3,VDD*%
%TO.N,+Vdc*%
X92170000Y-48650000D03*
%TO.P,D26,2,DIN*%
%TO.N,Net-(D25-DOUT)*%
X91500000Y-48650000D03*
%TO.P,D26,1,GND*%
%TO.N,GND*%
X91500000Y-47980000D03*
%TD*%
%TO.P,D24,4,DOUT*%
%TO.N,Net-(D24-DOUT)*%
X89470000Y-47980000D03*
%TO.P,D24,3,VDD*%
%TO.N,+Vdc*%
X89470000Y-48650000D03*
%TO.P,D24,2,DIN*%
%TO.N,Net-(D23-DOUT)*%
X88800000Y-48650000D03*
%TO.P,D24,1,GND*%
%TO.N,GND*%
X88800000Y-47980000D03*
%TD*%
%TO.P,D44,4,DOUT*%
%TO.N,Net-(D44-DOUT)*%
X116470000Y-47980000D03*
%TO.P,D44,3,VDD*%
%TO.N,+Vdc*%
X116470000Y-48650000D03*
%TO.P,D44,2,DIN*%
%TO.N,Net-(D43-DOUT)*%
X115800000Y-48650000D03*
%TO.P,D44,1,GND*%
%TO.N,GND*%
X115800000Y-47980000D03*
%TD*%
%TO.P,D49,4,DOUT*%
%TO.N,Net-(D49-DOUT)*%
X123220000Y-47980000D03*
%TO.P,D49,3,VDD*%
%TO.N,+Vdc*%
X123220000Y-48650000D03*
%TO.P,D49,2,DIN*%
%TO.N,Net-(D48-DOUT)*%
X122550000Y-48650000D03*
%TO.P,D49,1,GND*%
%TO.N,GND*%
X122550000Y-47980000D03*
%TD*%
%TO.P,D43,4,DOUT*%
%TO.N,Net-(D43-DOUT)*%
X115120000Y-47980000D03*
%TO.P,D43,3,VDD*%
%TO.N,+Vdc*%
X115120000Y-48650000D03*
%TO.P,D43,2,DIN*%
%TO.N,Net-(D42-DOUT)*%
X114450000Y-48650000D03*
%TO.P,D43,1,GND*%
%TO.N,GND*%
X114450000Y-47980000D03*
%TD*%
%TO.P,D30,4,DOUT*%
%TO.N,Net-(D30-DOUT)*%
X97570000Y-47980000D03*
%TO.P,D30,3,VDD*%
%TO.N,+Vdc*%
X97570000Y-48650000D03*
%TO.P,D30,2,DIN*%
%TO.N,Net-(D29-DOUT)*%
X96900000Y-48650000D03*
%TO.P,D30,1,GND*%
%TO.N,GND*%
X96900000Y-47980000D03*
%TD*%
%TO.P,D15,4,DOUT*%
%TO.N,Net-(D15-DOUT)*%
X77320000Y-47980000D03*
%TO.P,D15,3,VDD*%
%TO.N,+Vdc*%
X77320000Y-48650000D03*
%TO.P,D15,2,DIN*%
%TO.N,Net-(D14-DOUT)*%
X76650000Y-48650000D03*
%TO.P,D15,1,GND*%
%TO.N,GND*%
X76650000Y-47980000D03*
%TD*%
%TO.P,D5,4,DOUT*%
%TO.N,Net-(D5-DOUT)*%
X63820000Y-47980000D03*
%TO.P,D5,3,VDD*%
%TO.N,+Vdc*%
X63820000Y-48650000D03*
%TO.P,D5,2,DIN*%
%TO.N,Net-(D4-DOUT)*%
X63150000Y-48650000D03*
%TO.P,D5,1,GND*%
%TO.N,GND*%
X63150000Y-47980000D03*
%TD*%
D12*
%TO.P,J1,3,Pin_3*%
%TO.N,+Vdc*%
X54600000Y-51030000D03*
%TO.P,J1,2,Pin_2*%
%TO.N,Net-(J1-Pin_2)*%
X54600000Y-48490000D03*
D13*
%TO.P,J1,1,Pin_1*%
%TO.N,GND*%
X54600000Y-45950000D03*
%TD*%
D10*
%TO.P,D50,4,DOUT*%
%TO.N,Net-(D50-DOUT)*%
X124570000Y-47980000D03*
%TO.P,D50,3,VDD*%
%TO.N,+Vdc*%
X124570000Y-48650000D03*
%TO.P,D50,2,DIN*%
%TO.N,Net-(D49-DOUT)*%
X123900000Y-48650000D03*
%TO.P,D50,1,GND*%
%TO.N,GND*%
X123900000Y-47980000D03*
%TD*%
%TO.P,D45,4,DOUT*%
%TO.N,Net-(D45-DOUT)*%
X117820000Y-47980000D03*
%TO.P,D45,3,VDD*%
%TO.N,+Vdc*%
X117820000Y-48650000D03*
%TO.P,D45,2,DIN*%
%TO.N,Net-(D44-DOUT)*%
X117150000Y-48650000D03*
%TO.P,D45,1,GND*%
%TO.N,GND*%
X117150000Y-47980000D03*
%TD*%
%TO.P,D37,4,DOUT*%
%TO.N,Net-(D37-DOUT)*%
X107020000Y-47980000D03*
%TO.P,D37,3,VDD*%
%TO.N,+Vdc*%
X107020000Y-48650000D03*
%TO.P,D37,2,DIN*%
%TO.N,Net-(D36-DOUT)*%
X106350000Y-48650000D03*
%TO.P,D37,1,GND*%
%TO.N,GND*%
X106350000Y-47980000D03*
%TD*%
%TO.P,D8,4,DOUT*%
%TO.N,Net-(D8-DOUT)*%
X67870000Y-47980000D03*
%TO.P,D8,3,VDD*%
%TO.N,+Vdc*%
X67870000Y-48650000D03*
%TO.P,D8,2,DIN*%
%TO.N,Net-(D7-DOUT)*%
X67200000Y-48650000D03*
%TO.P,D8,1,GND*%
%TO.N,GND*%
X67200000Y-47980000D03*
%TD*%
%TO.P,D4,4,DOUT*%
%TO.N,Net-(D4-DOUT)*%
X62470000Y-47980000D03*
%TO.P,D4,3,VDD*%
%TO.N,+Vdc*%
X62470000Y-48650000D03*
%TO.P,D4,2,DIN*%
%TO.N,Net-(D3-DOUT)*%
X61800000Y-48650000D03*
%TO.P,D4,1,GND*%
%TO.N,GND*%
X61800000Y-47980000D03*
%TD*%
%TO.P,D21,4,DOUT*%
%TO.N,Net-(D21-DOUT)*%
X85420000Y-47980000D03*
%TO.P,D21,3,VDD*%
%TO.N,+Vdc*%
X85420000Y-48650000D03*
%TO.P,D21,2,DIN*%
%TO.N,Net-(D20-DOUT)*%
X84750000Y-48650000D03*
%TO.P,D21,1,GND*%
%TO.N,GND*%
X84750000Y-47980000D03*
%TD*%
%TO.P,D33,4,DOUT*%
%TO.N,Net-(D33-DOUT)*%
X101620000Y-47980000D03*
%TO.P,D33,3,VDD*%
%TO.N,+Vdc*%
X101620000Y-48650000D03*
%TO.P,D33,2,DIN*%
%TO.N,Net-(D32-DOUT)*%
X100950000Y-48650000D03*
%TO.P,D33,1,GND*%
%TO.N,GND*%
X100950000Y-47980000D03*
%TD*%
%TO.P,D31,4,DOUT*%
%TO.N,Net-(D31-DOUT)*%
X98920000Y-47980000D03*
%TO.P,D31,3,VDD*%
%TO.N,+Vdc*%
X98920000Y-48650000D03*
%TO.P,D31,2,DIN*%
%TO.N,Net-(D30-DOUT)*%
X98250000Y-48650000D03*
%TO.P,D31,1,GND*%
%TO.N,GND*%
X98250000Y-47980000D03*
%TD*%
%TO.P,D42,4,DOUT*%
%TO.N,Net-(D42-DOUT)*%
X113770000Y-47980000D03*
%TO.P,D42,3,VDD*%
%TO.N,+Vdc*%
X113770000Y-48650000D03*
%TO.P,D42,2,DIN*%
%TO.N,Net-(D41-DOUT)*%
X113100000Y-48650000D03*
%TO.P,D42,1,GND*%
%TO.N,GND*%
X113100000Y-47980000D03*
%TD*%
%TO.P,D47,4,DOUT*%
%TO.N,Net-(D47-DOUT)*%
X120520000Y-47980000D03*
%TO.P,D47,3,VDD*%
%TO.N,+Vdc*%
X120520000Y-48650000D03*
%TO.P,D47,2,DIN*%
%TO.N,Net-(D46-DOUT)*%
X119850000Y-48650000D03*
%TO.P,D47,1,GND*%
%TO.N,GND*%
X119850000Y-47980000D03*
%TD*%
%TO.P,D36,4,DOUT*%
%TO.N,Net-(D36-DOUT)*%
X105670000Y-47980000D03*
%TO.P,D36,3,VDD*%
%TO.N,+Vdc*%
X105670000Y-48650000D03*
%TO.P,D36,2,DIN*%
%TO.N,Net-(D35-DOUT)*%
X105000000Y-48650000D03*
%TO.P,D36,1,GND*%
%TO.N,GND*%
X105000000Y-47980000D03*
%TD*%
%TO.P,D20,4,DOUT*%
%TO.N,Net-(D20-DOUT)*%
X84070000Y-47980000D03*
%TO.P,D20,3,VDD*%
%TO.N,+Vdc*%
X84070000Y-48650000D03*
%TO.P,D20,2,DIN*%
%TO.N,Net-(D19-DOUT)*%
X83400000Y-48650000D03*
%TO.P,D20,1,GND*%
%TO.N,GND*%
X83400000Y-47980000D03*
%TD*%
%TO.P,D39,4,DOUT*%
%TO.N,Net-(D39-DOUT)*%
X109720000Y-47980000D03*
%TO.P,D39,3,VDD*%
%TO.N,+Vdc*%
X109720000Y-48650000D03*
%TO.P,D39,2,DIN*%
%TO.N,Net-(D38-DOUT)*%
X109050000Y-48650000D03*
%TO.P,D39,1,GND*%
%TO.N,GND*%
X109050000Y-47980000D03*
%TD*%
%TO.P,D22,4,DOUT*%
%TO.N,Net-(D22-DOUT)*%
X86770000Y-47980000D03*
%TO.P,D22,3,VDD*%
%TO.N,+Vdc*%
X86770000Y-48650000D03*
%TO.P,D22,2,DIN*%
%TO.N,Net-(D21-DOUT)*%
X86100000Y-48650000D03*
%TO.P,D22,1,GND*%
%TO.N,GND*%
X86100000Y-47980000D03*
%TD*%
%TO.P,D12,4,DOUT*%
%TO.N,Net-(D12-DOUT)*%
X73270000Y-47980000D03*
%TO.P,D12,3,VDD*%
%TO.N,+Vdc*%
X73270000Y-48650000D03*
%TO.P,D12,2,DIN*%
%TO.N,Net-(D11-DOUT)*%
X72600000Y-48650000D03*
%TO.P,D12,1,GND*%
%TO.N,GND*%
X72600000Y-47980000D03*
%TD*%
%TO.P,D25,4,DOUT*%
%TO.N,Net-(D25-DOUT)*%
X90820000Y-47980000D03*
%TO.P,D25,3,VDD*%
%TO.N,+Vdc*%
X90820000Y-48650000D03*
%TO.P,D25,2,DIN*%
%TO.N,Net-(D24-DOUT)*%
X90150000Y-48650000D03*
%TO.P,D25,1,GND*%
%TO.N,GND*%
X90150000Y-47980000D03*
%TD*%
%TO.P,D27,4,DOUT*%
%TO.N,Net-(D27-DOUT)*%
X93520000Y-47980000D03*
%TO.P,D27,3,VDD*%
%TO.N,+Vdc*%
X93520000Y-48650000D03*
%TO.P,D27,2,DIN*%
%TO.N,Net-(D26-DOUT)*%
X92850000Y-48650000D03*
%TO.P,D27,1,GND*%
%TO.N,GND*%
X92850000Y-47980000D03*
%TD*%
%TO.P,D35,4,DOUT*%
%TO.N,Net-(D35-DOUT)*%
X104320000Y-47980000D03*
%TO.P,D35,3,VDD*%
%TO.N,+Vdc*%
X104320000Y-48650000D03*
%TO.P,D35,2,DIN*%
%TO.N,Net-(D34-DOUT)*%
X103650000Y-48650000D03*
%TO.P,D35,1,GND*%
%TO.N,GND*%
X103650000Y-47980000D03*
%TD*%
%TO.P,D38,4,DOUT*%
%TO.N,Net-(D38-DOUT)*%
X108370000Y-47980000D03*
%TO.P,D38,3,VDD*%
%TO.N,+Vdc*%
X108370000Y-48650000D03*
%TO.P,D38,2,DIN*%
%TO.N,Net-(D37-DOUT)*%
X107700000Y-48650000D03*
%TO.P,D38,1,GND*%
%TO.N,GND*%
X107700000Y-47980000D03*
%TD*%
%TO.P,D14,4,DOUT*%
%TO.N,Net-(D14-DOUT)*%
X75970000Y-47980000D03*
%TO.P,D14,3,VDD*%
%TO.N,+Vdc*%
X75970000Y-48650000D03*
%TO.P,D14,2,DIN*%
%TO.N,Net-(D13-DOUT)*%
X75300000Y-48650000D03*
%TO.P,D14,1,GND*%
%TO.N,GND*%
X75300000Y-47980000D03*
%TD*%
%TO.P,D34,4,DOUT*%
%TO.N,Net-(D34-DOUT)*%
X102970000Y-47980000D03*
%TO.P,D34,3,VDD*%
%TO.N,+Vdc*%
X102970000Y-48650000D03*
%TO.P,D34,2,DIN*%
%TO.N,Net-(D33-DOUT)*%
X102300000Y-48650000D03*
%TO.P,D34,1,GND*%
%TO.N,GND*%
X102300000Y-47980000D03*
%TD*%
%TO.P,D16,4,DOUT*%
%TO.N,Net-(D16-DOUT)*%
X78670000Y-47980000D03*
%TO.P,D16,3,VDD*%
%TO.N,+Vdc*%
X78670000Y-48650000D03*
%TO.P,D16,2,DIN*%
%TO.N,Net-(D15-DOUT)*%
X78000000Y-48650000D03*
%TO.P,D16,1,GND*%
%TO.N,GND*%
X78000000Y-47980000D03*
%TD*%
%TO.P,D29,4,DOUT*%
%TO.N,Net-(D29-DOUT)*%
X96220000Y-47980000D03*
%TO.P,D29,3,VDD*%
%TO.N,+Vdc*%
X96220000Y-48650000D03*
%TO.P,D29,2,DIN*%
%TO.N,Net-(D28-DOUT)*%
X95550000Y-48650000D03*
%TO.P,D29,1,GND*%
%TO.N,GND*%
X95550000Y-47980000D03*
%TD*%
%TO.P,D41,4,DOUT*%
%TO.N,Net-(D41-DOUT)*%
X112420000Y-47980000D03*
%TO.P,D41,3,VDD*%
%TO.N,+Vdc*%
X112420000Y-48650000D03*
%TO.P,D41,2,DIN*%
%TO.N,Net-(D40-DOUT)*%
X111750000Y-48650000D03*
%TO.P,D41,1,GND*%
%TO.N,GND*%
X111750000Y-47980000D03*
%TD*%
%TO.P,D19,4,DOUT*%
%TO.N,Net-(D19-DOUT)*%
X82720000Y-47980000D03*
%TO.P,D19,3,VDD*%
%TO.N,+Vdc*%
X82720000Y-48650000D03*
%TO.P,D19,2,DIN*%
%TO.N,Net-(D18-DOUT)*%
X82050000Y-48650000D03*
%TO.P,D19,1,GND*%
%TO.N,GND*%
X82050000Y-47980000D03*
%TD*%
%TO.P,D46,4,DOUT*%
%TO.N,Net-(D46-DOUT)*%
X119170000Y-47980000D03*
%TO.P,D46,3,VDD*%
%TO.N,+Vdc*%
X119170000Y-48650000D03*
%TO.P,D46,2,DIN*%
%TO.N,Net-(D45-DOUT)*%
X118500000Y-48650000D03*
%TO.P,D46,1,GND*%
%TO.N,GND*%
X118500000Y-47980000D03*
%TD*%
%TO.P,D6,4,DOUT*%
%TO.N,Net-(D6-DOUT)*%
X65170000Y-47980000D03*
%TO.P,D6,3,VDD*%
%TO.N,+Vdc*%
X65170000Y-48650000D03*
%TO.P,D6,2,DIN*%
%TO.N,Net-(D5-DOUT)*%
X64500000Y-48650000D03*
%TO.P,D6,1,GND*%
%TO.N,GND*%
X64500000Y-47980000D03*
%TD*%
%TO.P,D10,4,DOUT*%
%TO.N,Net-(D10-DOUT)*%
X70570000Y-47980000D03*
%TO.P,D10,3,VDD*%
%TO.N,+Vdc*%
X70570000Y-48650000D03*
%TO.P,D10,2,DIN*%
%TO.N,Net-(D10-DIN)*%
X69900000Y-48650000D03*
%TO.P,D10,1,GND*%
%TO.N,GND*%
X69900000Y-47980000D03*
%TD*%
%TO.P,D40,4,DOUT*%
%TO.N,Net-(D40-DOUT)*%
X111070000Y-47980000D03*
%TO.P,D40,3,VDD*%
%TO.N,+Vdc*%
X111070000Y-48650000D03*
%TO.P,D40,2,DIN*%
%TO.N,Net-(D39-DOUT)*%
X110400000Y-48650000D03*
%TO.P,D40,1,GND*%
%TO.N,GND*%
X110400000Y-47980000D03*
%TD*%
%TO.P,D3,4,DOUT*%
%TO.N,Net-(D3-DOUT)*%
X61120000Y-47980000D03*
%TO.P,D3,3,VDD*%
%TO.N,+Vdc*%
X61120000Y-48650000D03*
%TO.P,D3,2,DIN*%
%TO.N,Net-(D2-DOUT)*%
X60450000Y-48650000D03*
%TO.P,D3,1,GND*%
%TO.N,GND*%
X60450000Y-47980000D03*
%TD*%
%TO.P,D18,4,DOUT*%
%TO.N,Net-(D18-DOUT)*%
X81370000Y-47980000D03*
%TO.P,D18,3,VDD*%
%TO.N,+Vdc*%
X81370000Y-48650000D03*
%TO.P,D18,2,DIN*%
%TO.N,Net-(D17-DOUT)*%
X80700000Y-48650000D03*
%TO.P,D18,1,GND*%
%TO.N,GND*%
X80700000Y-47980000D03*
%TD*%
%TO.P,D23,4,DOUT*%
%TO.N,Net-(D23-DOUT)*%
X88120000Y-47980000D03*
%TO.P,D23,3,VDD*%
%TO.N,+Vdc*%
X88120000Y-48650000D03*
%TO.P,D23,2,DIN*%
%TO.N,Net-(D22-DOUT)*%
X87450000Y-48650000D03*
%TO.P,D23,1,GND*%
%TO.N,GND*%
X87450000Y-47980000D03*
%TD*%
%TO.P,D9,4,DOUT*%
%TO.N,Net-(D10-DIN)*%
X69220000Y-47980000D03*
%TO.P,D9,3,VDD*%
%TO.N,+Vdc*%
X69220000Y-48650000D03*
%TO.P,D9,2,DIN*%
%TO.N,Net-(D8-DOUT)*%
X68550000Y-48650000D03*
%TO.P,D9,1,GND*%
%TO.N,GND*%
X68550000Y-47980000D03*
%TD*%
%TO.P,D17,4,DOUT*%
%TO.N,Net-(D17-DOUT)*%
X80020000Y-47980000D03*
%TO.P,D17,3,VDD*%
%TO.N,+Vdc*%
X80020000Y-48650000D03*
%TO.P,D17,2,DIN*%
%TO.N,Net-(D16-DOUT)*%
X79350000Y-48650000D03*
%TO.P,D17,1,GND*%
%TO.N,GND*%
X79350000Y-47980000D03*
%TD*%
D13*
%TO.P,J2,1,Pin_1*%
%TO.N,GND*%
X128000000Y-45910000D03*
D12*
%TO.P,J2,2,Pin_2*%
%TO.N,Net-(D50-DOUT)*%
X128000000Y-48450000D03*
%TO.P,J2,3,Pin_3*%
%TO.N,+Vdc*%
X128000000Y-50990000D03*
%TD*%
D10*
%TO.P,D7,4,DOUT*%
%TO.N,Net-(D7-DOUT)*%
X66520000Y-47980000D03*
%TO.P,D7,3,VDD*%
%TO.N,+Vdc*%
X66520000Y-48650000D03*
%TO.P,D7,2,DIN*%
%TO.N,Net-(D6-DOUT)*%
X65850000Y-48650000D03*
%TO.P,D7,1,GND*%
%TO.N,GND*%
X65850000Y-47980000D03*
%TD*%
%TO.P,D48,4,DOUT*%
%TO.N,Net-(D48-DOUT)*%
X121870000Y-47980000D03*
%TO.P,D48,3,VDD*%
%TO.N,+Vdc*%
X121870000Y-48650000D03*
%TO.P,D48,2,DIN*%
%TO.N,Net-(D47-DOUT)*%
X121200000Y-48650000D03*
%TO.P,D48,1,GND*%
%TO.N,GND*%
X121200000Y-47980000D03*
%TD*%
%TO.P,D2,4,DOUT*%
%TO.N,Net-(D2-DOUT)*%
X59770000Y-47980000D03*
%TO.P,D2,3,VDD*%
%TO.N,+Vdc*%
X59770000Y-48650000D03*
%TO.P,D2,2,DIN*%
%TO.N,Net-(D1-DOUT)*%
X59100000Y-48650000D03*
%TO.P,D2,1,GND*%
%TO.N,GND*%
X59100000Y-47980000D03*
%TD*%
D14*
%TO.N,+Vdc*%
X96280000Y-51550000D03*
X78500000Y-51550000D03*
X106440000Y-51550000D03*
X103900000Y-51550000D03*
X98820000Y-51550000D03*
X93740000Y-51550000D03*
X91200000Y-51550000D03*
X65800000Y-51550000D03*
X75960000Y-51550000D03*
X73420000Y-51550000D03*
X70880000Y-51550000D03*
X63260000Y-51550000D03*
X68340000Y-51550000D03*
X83580000Y-51550000D03*
X111530000Y-51550000D03*
X88660000Y-51550000D03*
X124230000Y-51550000D03*
X86120000Y-51550000D03*
X60720000Y-51550000D03*
X101360000Y-51550000D03*
X81040000Y-51550000D03*
X108990000Y-51550000D03*
X116610000Y-51550000D03*
X121690000Y-51550000D03*
X106450000Y-51550000D03*
X119150000Y-51550000D03*
X114070000Y-51550000D03*
%TO.N,GND*%
X121510000Y-45250000D03*
X108810000Y-45250000D03*
X118970000Y-45250000D03*
X116430000Y-45250000D03*
X113890000Y-45250000D03*
X106270000Y-45250000D03*
X111350000Y-45250000D03*
X124050000Y-45250000D03*
X106260000Y-45250000D03*
X103720000Y-45250000D03*
X101180000Y-45250000D03*
X98640000Y-45250000D03*
X96100000Y-45250000D03*
X93560000Y-45250000D03*
X91020000Y-45250000D03*
X88480000Y-45250000D03*
X85940000Y-45250000D03*
X83400000Y-45250000D03*
X80860000Y-45250000D03*
X78320000Y-45250000D03*
X75780000Y-45250000D03*
X73240000Y-45250000D03*
X70700000Y-45250000D03*
X68160000Y-45250000D03*
X65620000Y-45250000D03*
X63080000Y-45250000D03*
X60540000Y-45250000D03*
X58000000Y-45250000D03*
%TO.N,Net-(J1-Pin_2)*%
X59400000Y-51650000D03*
%TD*%
D15*
%TO.N,Net-(J1-Pin_2)*%
X58050000Y-51650000D02*
X59400000Y-51650000D01*
%TO.N,Net-(D1-DIN)*%
X57750000Y-49700000D02*
X57750000Y-48650000D01*
X58050000Y-50000000D02*
X57750000Y-49700000D01*
%TO.N,Net-(J1-Pin_2)*%
X57760000Y-51650000D02*
X58050000Y-51650000D01*
D16*
%TO.N,Net-(D40-DOUT)*%
X111080000Y-47980000D02*
X111750000Y-48650000D01*
%TO.N,Net-(D7-DOUT)*%
X66530000Y-47980000D02*
X67200000Y-48650000D01*
%TO.N,Net-(D31-DOUT)*%
X98930000Y-47980000D02*
X99600000Y-48650000D01*
%TO.N,Net-(D35-DOUT)*%
X104330000Y-47980000D02*
X105000000Y-48650000D01*
%TO.N,Net-(D49-DOUT)*%
X123230000Y-47980000D02*
X123900000Y-48650000D01*
%TO.N,Net-(D30-DOUT)*%
X97580000Y-47980000D02*
X98250000Y-48650000D01*
%TO.N,Net-(D47-DOUT)*%
X120530000Y-47980000D02*
X121200000Y-48650000D01*
%TO.N,Net-(D25-DOUT)*%
X90830000Y-47980000D02*
X91500000Y-48650000D01*
%TO.N,Net-(D38-DOUT)*%
X108380000Y-47980000D02*
X109050000Y-48650000D01*
%TO.N,Net-(D23-DOUT)*%
X88130000Y-47980000D02*
X88800000Y-48650000D01*
%TO.N,Net-(D2-DOUT)*%
X59780000Y-47980000D02*
X60450000Y-48650000D01*
%TO.N,Net-(D17-DOUT)*%
X80030000Y-47980000D02*
X80700000Y-48650000D01*
%TO.N,Net-(D22-DOUT)*%
X86780000Y-47980000D02*
X87450000Y-48650000D01*
%TO.N,Net-(D46-DOUT)*%
X119180000Y-47980000D02*
X119850000Y-48650000D01*
%TO.N,Net-(D18-DOUT)*%
X81380000Y-47980000D02*
X82050000Y-48650000D01*
%TO.N,Net-(D29-DOUT)*%
X96230000Y-47980000D02*
X96900000Y-48650000D01*
%TO.N,Net-(D6-DOUT)*%
X65180000Y-47980000D02*
X65850000Y-48650000D01*
%TO.N,Net-(D34-DOUT)*%
X102980000Y-47980000D02*
X103650000Y-48650000D01*
%TO.N,Net-(D8-DOUT)*%
X67880000Y-47980000D02*
X68550000Y-48650000D01*
%TO.N,Net-(D24-DOUT)*%
X89480000Y-47980000D02*
X90150000Y-48650000D01*
%TO.N,Net-(D14-DOUT)*%
X75980000Y-47980000D02*
X76650000Y-48650000D01*
%TO.N,Net-(D36-DOUT)*%
X105680000Y-47980000D02*
X106350000Y-48650000D01*
%TO.N,Net-(D27-DOUT)*%
X93530000Y-47980000D02*
X94200000Y-48650000D01*
%TO.N,Net-(D19-DOUT)*%
X82730000Y-47980000D02*
X83400000Y-48650000D01*
%TO.N,Net-(D4-DOUT)*%
X62480000Y-47980000D02*
X63150000Y-48650000D01*
%TO.N,Net-(D37-DOUT)*%
X107030000Y-47980000D02*
X107700000Y-48650000D01*
%TO.N,Net-(D43-DOUT)*%
X115130000Y-47980000D02*
X115800000Y-48650000D01*
%TO.N,Net-(D48-DOUT)*%
X121880000Y-47980000D02*
X122550000Y-48650000D01*
%TO.N,Net-(D10-DIN)*%
X69230000Y-47980000D02*
X69900000Y-48650000D01*
%TO.N,Net-(D5-DOUT)*%
X63830000Y-47980000D02*
X64500000Y-48650000D01*
%TO.N,Net-(D21-DOUT)*%
X85430000Y-47980000D02*
X86100000Y-48650000D01*
%TO.N,Net-(D39-DOUT)*%
X109730000Y-47980000D02*
X110400000Y-48650000D01*
%TO.N,Net-(D44-DOUT)*%
X116480000Y-47980000D02*
X117150000Y-48650000D01*
%TO.N,Net-(D28-DOUT)*%
X94880000Y-47980000D02*
X95550000Y-48650000D01*
%TO.N,Net-(D41-DOUT)*%
X112430000Y-47980000D02*
X113100000Y-48650000D01*
%TO.N,Net-(D15-DOUT)*%
X77330000Y-47980000D02*
X78000000Y-48650000D01*
%TO.N,Net-(D42-DOUT)*%
X113780000Y-47980000D02*
X114450000Y-48650000D01*
%TO.N,Net-(D10-DOUT)*%
X70580000Y-47980000D02*
X71250000Y-48650000D01*
%TO.N,Net-(D33-DOUT)*%
X101630000Y-47980000D02*
X102300000Y-48650000D01*
%TO.N,Net-(D32-DOUT)*%
X100280000Y-47980000D02*
X100950000Y-48650000D01*
%TO.N,Net-(D3-DOUT)*%
X61130000Y-47980000D02*
X61800000Y-48650000D01*
%TO.N,Net-(D26-DOUT)*%
X92180000Y-47980000D02*
X92850000Y-48650000D01*
%TO.N,Net-(D20-DOUT)*%
X84080000Y-47980000D02*
X84750000Y-48650000D01*
%TO.N,Net-(D12-DOUT)*%
X73280000Y-47980000D02*
X73950000Y-48650000D01*
%TO.N,Net-(D16-DOUT)*%
X78680000Y-47980000D02*
X79350000Y-48650000D01*
%TO.N,Net-(D11-DOUT)*%
X71930000Y-47980000D02*
X72600000Y-48650000D01*
%TO.N,Net-(D45-DOUT)*%
X117830000Y-47980000D02*
X118500000Y-48650000D01*
%TO.N,Net-(D13-DOUT)*%
X74630000Y-47980000D02*
X75300000Y-48650000D01*
%TO.N,Net-(D1-DOUT)*%
X58430000Y-47980000D02*
X59100000Y-48650000D01*
X58420000Y-47980000D02*
X58430000Y-47980000D01*
D15*
%TO.N,+Vdc*%
X58420000Y-48650000D02*
X58430000Y-48650000D01*
D16*
%TO.N,Net-(D50-DOUT)*%
X127530000Y-47980000D02*
X128000000Y-48450000D01*
X124570000Y-47980000D02*
X127530000Y-47980000D01*
%TD*%
%TA.AperFunction,Conductor*%
%TO.N,GND*%
G36*
X129766662Y-44669713D02*
G01*
X129803207Y-44720013D01*
X129808123Y-44749843D01*
X129848727Y-47998208D01*
X129830255Y-48057574D01*
X129780416Y-48094745D01*
X129748200Y-48100065D01*
X129068331Y-48100506D01*
X129009188Y-48081331D01*
X128979545Y-48047328D01*
X128880362Y-47861769D01*
X128880357Y-47861762D01*
X128748683Y-47701317D01*
X128748682Y-47701316D01*
X128588237Y-47569642D01*
X128588230Y-47569637D01*
X128405186Y-47471798D01*
X128405179Y-47471795D01*
X128206566Y-47411548D01*
X128206563Y-47411547D01*
X128206561Y-47411547D01*
X128000000Y-47391202D01*
X127793439Y-47411547D01*
X127793437Y-47411547D01*
X127793433Y-47411548D01*
X127594820Y-47471795D01*
X127594813Y-47471798D01*
X127411769Y-47569637D01*
X127411762Y-47569642D01*
X127311574Y-47651865D01*
X127253676Y-47674526D01*
X127247754Y-47674700D01*
X124954081Y-47674700D01*
X124898190Y-47657746D01*
X124894632Y-47655369D01*
X124894632Y-47655368D01*
X124818685Y-47604622D01*
X124818684Y-47604621D01*
X124765033Y-47593949D01*
X124751712Y-47591300D01*
X124388288Y-47591300D01*
X124377177Y-47593510D01*
X124321315Y-47604621D01*
X124245368Y-47655368D01*
X124194621Y-47731315D01*
X124181300Y-47798288D01*
X124181300Y-48003143D01*
X124162087Y-48062274D01*
X124111787Y-48098819D01*
X124080765Y-48103743D01*
X123827401Y-48103907D01*
X123768257Y-48084732D01*
X123756201Y-48074442D01*
X123638165Y-47956406D01*
X123609939Y-47901008D01*
X123608700Y-47885271D01*
X123608700Y-47798288D01*
X123595378Y-47731315D01*
X123575333Y-47701316D01*
X123544632Y-47655368D01*
X123468685Y-47604622D01*
X123468684Y-47604621D01*
X123415033Y-47593949D01*
X123401712Y-47591300D01*
X123038288Y-47591300D01*
X123027177Y-47593510D01*
X122971315Y-47604621D01*
X122895368Y-47655368D01*
X122844621Y-47731315D01*
X122831300Y-47798288D01*
X122831300Y-48004019D01*
X122812087Y-48063150D01*
X122761787Y-48099695D01*
X122730765Y-48104619D01*
X122478276Y-48104782D01*
X122419132Y-48085607D01*
X122407076Y-48075317D01*
X122288165Y-47956406D01*
X122259939Y-47901008D01*
X122258700Y-47885271D01*
X122258700Y-47798288D01*
X122245378Y-47731315D01*
X122225333Y-47701316D01*
X122194632Y-47655368D01*
X122118685Y-47604622D01*
X122118684Y-47604621D01*
X122065033Y-47593949D01*
X122051712Y-47591300D01*
X121688288Y-47591300D01*
X121677177Y-47593510D01*
X121621315Y-47604621D01*
X121545368Y-47655368D01*
X121494621Y-47731315D01*
X121481300Y-47798288D01*
X121481300Y-48004895D01*
X121462087Y-48064026D01*
X121411787Y-48100571D01*
X121380765Y-48105495D01*
X121129152Y-48105658D01*
X121070009Y-48086483D01*
X121057952Y-48076193D01*
X120938165Y-47956406D01*
X120909939Y-47901008D01*
X120908700Y-47885271D01*
X120908700Y-47798288D01*
X120895378Y-47731315D01*
X120875333Y-47701316D01*
X120844632Y-47655368D01*
X120768685Y-47604622D01*
X120768684Y-47604621D01*
X120715033Y-47593949D01*
X120701712Y-47591300D01*
X120338288Y-47591300D01*
X120327177Y-47593510D01*
X120271315Y-47604621D01*
X120195368Y-47655368D01*
X120144621Y-47731315D01*
X120131300Y-47798288D01*
X120131300Y-48005771D01*
X120112087Y-48064902D01*
X120061787Y-48101447D01*
X120030765Y-48106371D01*
X119780027Y-48106533D01*
X119720883Y-48087358D01*
X119708827Y-48077068D01*
X119588165Y-47956406D01*
X119559939Y-47901008D01*
X119558700Y-47885271D01*
X119558700Y-47798288D01*
X119545378Y-47731315D01*
X119525333Y-47701316D01*
X119494632Y-47655368D01*
X119418685Y-47604622D01*
X119418684Y-47604621D01*
X119365033Y-47593949D01*
X119351712Y-47591300D01*
X118988288Y-47591300D01*
X118977177Y-47593510D01*
X118921315Y-47604621D01*
X118845368Y-47655368D01*
X118794621Y-47731315D01*
X118781300Y-47798288D01*
X118781300Y-48006647D01*
X118762087Y-48065778D01*
X118711787Y-48102323D01*
X118680765Y-48107247D01*
X118430903Y-48107409D01*
X118371760Y-48088234D01*
X118359703Y-48077944D01*
X118238165Y-47956406D01*
X118209939Y-47901008D01*
X118208700Y-47885271D01*
X118208700Y-47798288D01*
X118195378Y-47731315D01*
X118175333Y-47701316D01*
X118144632Y-47655368D01*
X118068685Y-47604622D01*
X118068684Y-47604621D01*
X118015033Y-47593949D01*
X118001712Y-47591300D01*
X117638288Y-47591300D01*
X117627177Y-47593510D01*
X117571315Y-47604621D01*
X117495368Y-47655368D01*
X117444621Y-47731315D01*
X117431300Y-47798288D01*
X117431300Y-48007523D01*
X117412087Y-48066654D01*
X117361787Y-48103199D01*
X117330765Y-48108123D01*
X117081778Y-48108284D01*
X117022634Y-48089109D01*
X117010578Y-48078819D01*
X116888165Y-47956406D01*
X116859939Y-47901008D01*
X116858700Y-47885271D01*
X116858700Y-47798288D01*
X116845378Y-47731315D01*
X116825333Y-47701316D01*
X116794632Y-47655368D01*
X116718685Y-47604622D01*
X116718684Y-47604621D01*
X116665033Y-47593949D01*
X116651712Y-47591300D01*
X116288288Y-47591300D01*
X116277177Y-47593510D01*
X116221315Y-47604621D01*
X116145368Y-47655368D01*
X116094621Y-47731315D01*
X116081300Y-47798288D01*
X116081300Y-48008399D01*
X116062087Y-48067530D01*
X116011787Y-48104075D01*
X115980765Y-48108999D01*
X115732654Y-48109160D01*
X115673511Y-48089985D01*
X115661454Y-48079695D01*
X115538165Y-47956406D01*
X115509939Y-47901008D01*
X115508700Y-47885271D01*
X115508700Y-47798288D01*
X115495378Y-47731315D01*
X115475333Y-47701316D01*
X115444632Y-47655368D01*
X115368685Y-47604622D01*
X115368684Y-47604621D01*
X115315033Y-47593949D01*
X115301712Y-47591300D01*
X114938288Y-47591300D01*
X114927177Y-47593510D01*
X114871315Y-47604621D01*
X114795368Y-47655368D01*
X114744621Y-47731315D01*
X114731300Y-47798288D01*
X114731300Y-48009275D01*
X114712087Y-48068406D01*
X114661787Y-48104951D01*
X114630765Y-48109875D01*
X114383529Y-48110035D01*
X114324385Y-48090860D01*
X114312329Y-48080570D01*
X114188165Y-47956406D01*
X114159939Y-47901008D01*
X114158700Y-47885271D01*
X114158700Y-47798288D01*
X114145378Y-47731315D01*
X114125333Y-47701316D01*
X114094632Y-47655368D01*
X114018685Y-47604622D01*
X114018684Y-47604621D01*
X113965033Y-47593949D01*
X113951712Y-47591300D01*
X113588288Y-47591300D01*
X113577177Y-47593510D01*
X113521315Y-47604621D01*
X113445368Y-47655368D01*
X113394621Y-47731315D01*
X113381300Y-47798288D01*
X113381300Y-48010152D01*
X113362087Y-48069283D01*
X113311787Y-48105828D01*
X113280765Y-48110752D01*
X113034405Y-48110911D01*
X112975261Y-48091736D01*
X112963205Y-48081446D01*
X112838165Y-47956406D01*
X112809939Y-47901008D01*
X112808700Y-47885271D01*
X112808700Y-47798288D01*
X112795378Y-47731315D01*
X112775333Y-47701316D01*
X112744632Y-47655368D01*
X112668685Y-47604622D01*
X112668684Y-47604621D01*
X112615033Y-47593949D01*
X112601712Y-47591300D01*
X112238288Y-47591300D01*
X112227177Y-47593510D01*
X112171315Y-47604621D01*
X112095368Y-47655368D01*
X112044621Y-47731315D01*
X112031300Y-47798288D01*
X112031300Y-48011028D01*
X112012087Y-48070159D01*
X111961787Y-48106704D01*
X111930765Y-48111628D01*
X111685280Y-48111786D01*
X111626136Y-48092611D01*
X111614080Y-48082321D01*
X111488165Y-47956406D01*
X111459939Y-47901008D01*
X111458700Y-47885271D01*
X111458700Y-47798288D01*
X111445378Y-47731315D01*
X111425333Y-47701316D01*
X111394632Y-47655368D01*
X111318685Y-47604622D01*
X111318684Y-47604621D01*
X111265033Y-47593949D01*
X111251712Y-47591300D01*
X110888288Y-47591300D01*
X110877177Y-47593510D01*
X110821315Y-47604621D01*
X110745368Y-47655368D01*
X110694621Y-47731315D01*
X110681300Y-47798288D01*
X110681300Y-48011904D01*
X110662087Y-48071035D01*
X110611787Y-48107580D01*
X110580765Y-48112504D01*
X110336156Y-48112662D01*
X110277012Y-48093487D01*
X110264956Y-48083197D01*
X110138165Y-47956406D01*
X110109939Y-47901008D01*
X110108700Y-47885271D01*
X110108700Y-47798288D01*
X110095378Y-47731315D01*
X110075333Y-47701316D01*
X110044632Y-47655368D01*
X109968685Y-47604622D01*
X109968684Y-47604621D01*
X109915033Y-47593949D01*
X109901712Y-47591300D01*
X109538288Y-47591300D01*
X109527177Y-47593510D01*
X109471315Y-47604621D01*
X109395368Y-47655368D01*
X109344621Y-47731315D01*
X109331300Y-47798288D01*
X109331300Y-48012780D01*
X109312087Y-48071911D01*
X109261787Y-48108456D01*
X109230765Y-48113380D01*
X108987031Y-48113537D01*
X108927887Y-48094362D01*
X108915831Y-48084072D01*
X108788165Y-47956406D01*
X108759939Y-47901008D01*
X108758700Y-47885271D01*
X108758700Y-47798288D01*
X108745378Y-47731315D01*
X108725333Y-47701316D01*
X108694632Y-47655368D01*
X108618685Y-47604622D01*
X108618684Y-47604621D01*
X108565033Y-47593949D01*
X108551712Y-47591300D01*
X108188288Y-47591300D01*
X108177177Y-47593510D01*
X108121315Y-47604621D01*
X108045368Y-47655368D01*
X107994621Y-47731315D01*
X107981300Y-47798288D01*
X107981300Y-48013656D01*
X107962087Y-48072787D01*
X107911787Y-48109332D01*
X107880765Y-48114256D01*
X107637907Y-48114413D01*
X107578763Y-48095238D01*
X107566707Y-48084948D01*
X107438165Y-47956406D01*
X107409939Y-47901008D01*
X107408700Y-47885271D01*
X107408700Y-47798288D01*
X107395378Y-47731315D01*
X107375333Y-47701316D01*
X107344632Y-47655368D01*
X107268685Y-47604622D01*
X107268684Y-47604621D01*
X107215033Y-47593949D01*
X107201712Y-47591300D01*
X106838288Y-47591300D01*
X106827177Y-47593510D01*
X106771315Y-47604621D01*
X106695368Y-47655368D01*
X106644621Y-47731315D01*
X106631300Y-47798288D01*
X106631300Y-48014532D01*
X106612087Y-48073663D01*
X106561787Y-48110208D01*
X106530765Y-48115132D01*
X106288782Y-48115288D01*
X106229638Y-48096113D01*
X106217582Y-48085823D01*
X106088165Y-47956406D01*
X106059939Y-47901008D01*
X106058700Y-47885271D01*
X106058700Y-47798288D01*
X106045378Y-47731315D01*
X106025333Y-47701316D01*
X105994632Y-47655368D01*
X105918685Y-47604622D01*
X105918684Y-47604621D01*
X105865033Y-47593949D01*
X105851712Y-47591300D01*
X105488288Y-47591300D01*
X105477177Y-47593510D01*
X105421315Y-47604621D01*
X105345368Y-47655368D01*
X105294621Y-47731315D01*
X105281300Y-47798288D01*
X105281300Y-48015408D01*
X105262087Y-48074539D01*
X105211787Y-48111084D01*
X105180765Y-48116008D01*
X104939658Y-48116164D01*
X104880514Y-48096989D01*
X104868458Y-48086699D01*
X104738165Y-47956406D01*
X104709939Y-47901008D01*
X104708700Y-47885271D01*
X104708700Y-47798288D01*
X104695378Y-47731315D01*
X104675333Y-47701316D01*
X104644632Y-47655368D01*
X104568685Y-47604622D01*
X104568684Y-47604621D01*
X104515033Y-47593949D01*
X104501712Y-47591300D01*
X104138288Y-47591300D01*
X104127177Y-47593510D01*
X104071315Y-47604621D01*
X103995368Y-47655368D01*
X103944621Y-47731315D01*
X103931300Y-47798288D01*
X103931300Y-48016284D01*
X103912087Y-48075415D01*
X103861787Y-48111960D01*
X103830765Y-48116884D01*
X103590533Y-48117039D01*
X103531389Y-48097864D01*
X103519333Y-48087574D01*
X103388165Y-47956406D01*
X103359939Y-47901008D01*
X103358700Y-47885271D01*
X103358700Y-47798288D01*
X103345378Y-47731315D01*
X103325333Y-47701316D01*
X103294632Y-47655368D01*
X103218685Y-47604622D01*
X103218684Y-47604621D01*
X103165033Y-47593949D01*
X103151712Y-47591300D01*
X102788288Y-47591300D01*
X102777177Y-47593510D01*
X102721315Y-47604621D01*
X102645368Y-47655368D01*
X102594621Y-47731315D01*
X102581300Y-47798288D01*
X102581300Y-48017160D01*
X102562087Y-48076291D01*
X102511787Y-48112836D01*
X102480765Y-48117760D01*
X102241409Y-48117915D01*
X102182266Y-48098740D01*
X102170209Y-48088450D01*
X102038165Y-47956406D01*
X102009939Y-47901008D01*
X102008700Y-47885271D01*
X102008700Y-47798288D01*
X101995378Y-47731315D01*
X101975333Y-47701316D01*
X101944632Y-47655368D01*
X101868685Y-47604622D01*
X101868684Y-47604621D01*
X101815033Y-47593949D01*
X101801712Y-47591300D01*
X101438288Y-47591300D01*
X101427177Y-47593510D01*
X101371315Y-47604621D01*
X101295368Y-47655368D01*
X101244621Y-47731315D01*
X101231300Y-47798288D01*
X101231300Y-48018036D01*
X101212087Y-48077167D01*
X101161787Y-48113712D01*
X101130765Y-48118636D01*
X100892284Y-48118790D01*
X100833140Y-48099615D01*
X100821084Y-48089325D01*
X100688165Y-47956406D01*
X100659939Y-47901008D01*
X100658700Y-47885271D01*
X100658700Y-47798288D01*
X100645378Y-47731315D01*
X100625333Y-47701316D01*
X100594632Y-47655368D01*
X100518685Y-47604622D01*
X100518684Y-47604621D01*
X100465033Y-47593949D01*
X100451712Y-47591300D01*
X100088288Y-47591300D01*
X100077177Y-47593510D01*
X100021315Y-47604621D01*
X99945368Y-47655368D01*
X99894621Y-47731315D01*
X99881300Y-47798288D01*
X99881300Y-48018912D01*
X99862087Y-48078043D01*
X99811787Y-48114588D01*
X99780765Y-48119512D01*
X99543160Y-48119666D01*
X99484017Y-48100491D01*
X99471960Y-48090201D01*
X99338165Y-47956406D01*
X99309939Y-47901008D01*
X99308700Y-47885271D01*
X99308700Y-47798288D01*
X99295378Y-47731315D01*
X99275333Y-47701316D01*
X99244632Y-47655368D01*
X99168685Y-47604622D01*
X99168684Y-47604621D01*
X99115033Y-47593949D01*
X99101712Y-47591300D01*
X98738288Y-47591300D01*
X98727177Y-47593510D01*
X98671315Y-47604621D01*
X98595368Y-47655368D01*
X98544621Y-47731315D01*
X98531300Y-47798288D01*
X98531300Y-48019788D01*
X98512087Y-48078919D01*
X98461787Y-48115464D01*
X98430765Y-48120388D01*
X98194035Y-48120541D01*
X98134891Y-48101366D01*
X98122835Y-48091076D01*
X97988165Y-47956406D01*
X97959939Y-47901008D01*
X97958700Y-47885271D01*
X97958700Y-47798288D01*
X97945378Y-47731315D01*
X97925333Y-47701316D01*
X97894632Y-47655368D01*
X97818685Y-47604622D01*
X97818684Y-47604621D01*
X97765033Y-47593949D01*
X97751712Y-47591300D01*
X97388288Y-47591300D01*
X97377177Y-47593510D01*
X97321315Y-47604621D01*
X97245368Y-47655368D01*
X97194621Y-47731315D01*
X97181300Y-47798288D01*
X97181300Y-48020664D01*
X97162087Y-48079795D01*
X97111787Y-48116340D01*
X97080765Y-48121264D01*
X96844911Y-48121417D01*
X96785768Y-48102242D01*
X96773711Y-48091952D01*
X96638165Y-47956406D01*
X96609939Y-47901008D01*
X96608700Y-47885271D01*
X96608700Y-47798288D01*
X96595378Y-47731315D01*
X96575333Y-47701316D01*
X96544632Y-47655368D01*
X96468685Y-47604622D01*
X96468684Y-47604621D01*
X96415033Y-47593949D01*
X96401712Y-47591300D01*
X96038288Y-47591300D01*
X96027177Y-47593510D01*
X95971315Y-47604621D01*
X95895368Y-47655368D01*
X95844621Y-47731315D01*
X95831300Y-47798288D01*
X95831300Y-48021540D01*
X95812087Y-48080671D01*
X95761787Y-48117216D01*
X95730765Y-48122140D01*
X95495786Y-48122292D01*
X95436642Y-48103117D01*
X95424586Y-48092827D01*
X95288165Y-47956406D01*
X95259939Y-47901008D01*
X95258700Y-47885271D01*
X95258700Y-47798288D01*
X95245378Y-47731315D01*
X95225333Y-47701316D01*
X95194632Y-47655368D01*
X95118685Y-47604622D01*
X95118684Y-47604621D01*
X95065033Y-47593949D01*
X95051712Y-47591300D01*
X94688288Y-47591300D01*
X94677177Y-47593510D01*
X94621315Y-47604621D01*
X94545368Y-47655368D01*
X94494621Y-47731315D01*
X94481300Y-47798288D01*
X94481300Y-48022416D01*
X94462087Y-48081547D01*
X94411787Y-48118092D01*
X94380765Y-48123016D01*
X94146662Y-48123168D01*
X94087519Y-48103993D01*
X94075462Y-48093703D01*
X93938165Y-47956406D01*
X93909939Y-47901008D01*
X93908700Y-47885271D01*
X93908700Y-47798288D01*
X93895378Y-47731315D01*
X93875333Y-47701316D01*
X93844632Y-47655368D01*
X93768685Y-47604622D01*
X93768684Y-47604621D01*
X93715033Y-47593949D01*
X93701712Y-47591300D01*
X93338288Y-47591300D01*
X93327177Y-47593510D01*
X93271315Y-47604621D01*
X93195368Y-47655368D01*
X93144621Y-47731315D01*
X93131300Y-47798288D01*
X93131300Y-48023292D01*
X93112087Y-48082423D01*
X93061787Y-48118968D01*
X93030765Y-48123892D01*
X92797537Y-48124043D01*
X92738394Y-48104868D01*
X92726337Y-48094578D01*
X92588165Y-47956406D01*
X92559939Y-47901008D01*
X92558700Y-47885271D01*
X92558700Y-47798288D01*
X92545378Y-47731315D01*
X92525333Y-47701316D01*
X92494632Y-47655368D01*
X92418685Y-47604622D01*
X92418684Y-47604621D01*
X92365033Y-47593949D01*
X92351712Y-47591300D01*
X91988288Y-47591300D01*
X91977177Y-47593510D01*
X91921315Y-47604621D01*
X91845368Y-47655368D01*
X91794621Y-47731315D01*
X91781300Y-47798288D01*
X91781300Y-48024168D01*
X91762087Y-48083299D01*
X91711787Y-48119844D01*
X91680765Y-48124768D01*
X91448412Y-48124918D01*
X91389268Y-48105743D01*
X91377212Y-48095453D01*
X91238165Y-47956406D01*
X91209939Y-47901008D01*
X91208700Y-47885271D01*
X91208700Y-47798288D01*
X91195378Y-47731315D01*
X91175333Y-47701316D01*
X91144632Y-47655368D01*
X91068685Y-47604622D01*
X91068684Y-47604621D01*
X91015033Y-47593949D01*
X91001712Y-47591300D01*
X90638288Y-47591300D01*
X90627177Y-47593510D01*
X90571315Y-47604621D01*
X90495368Y-47655368D01*
X90444621Y-47731315D01*
X90431300Y-47798288D01*
X90431300Y-48025044D01*
X90412087Y-48084175D01*
X90361787Y-48120720D01*
X90330765Y-48125644D01*
X90099288Y-48125794D01*
X90040145Y-48106619D01*
X90028088Y-48096329D01*
X89888165Y-47956406D01*
X89859939Y-47901008D01*
X89858700Y-47885271D01*
X89858700Y-47798288D01*
X89845378Y-47731315D01*
X89825333Y-47701316D01*
X89794632Y-47655368D01*
X89718685Y-47604622D01*
X89718684Y-47604621D01*
X89665033Y-47593949D01*
X89651712Y-47591300D01*
X89288288Y-47591300D01*
X89277177Y-47593510D01*
X89221315Y-47604621D01*
X89145368Y-47655368D01*
X89094621Y-47731315D01*
X89081300Y-47798288D01*
X89081300Y-48025920D01*
X89062087Y-48085051D01*
X89011787Y-48121596D01*
X88980765Y-48126520D01*
X88750164Y-48126670D01*
X88691021Y-48107496D01*
X88678964Y-48097205D01*
X88538165Y-47956406D01*
X88509939Y-47901008D01*
X88508700Y-47885271D01*
X88508700Y-47798288D01*
X88495378Y-47731315D01*
X88475333Y-47701316D01*
X88444632Y-47655368D01*
X88368685Y-47604622D01*
X88368684Y-47604621D01*
X88315033Y-47593949D01*
X88301712Y-47591300D01*
X87938288Y-47591300D01*
X87927177Y-47593510D01*
X87871315Y-47604621D01*
X87795368Y-47655368D01*
X87744621Y-47731315D01*
X87731300Y-47798288D01*
X87731300Y-48026797D01*
X87712087Y-48085928D01*
X87661787Y-48122473D01*
X87630765Y-48127397D01*
X87401039Y-48127545D01*
X87341895Y-48108370D01*
X87329839Y-48098080D01*
X87188165Y-47956406D01*
X87159939Y-47901008D01*
X87158700Y-47885271D01*
X87158700Y-47798288D01*
X87145378Y-47731315D01*
X87125333Y-47701316D01*
X87094632Y-47655368D01*
X87018685Y-47604622D01*
X87018684Y-47604621D01*
X86965033Y-47593949D01*
X86951712Y-47591300D01*
X86588288Y-47591300D01*
X86577177Y-47593510D01*
X86521315Y-47604621D01*
X86445368Y-47655368D01*
X86394621Y-47731315D01*
X86381300Y-47798288D01*
X86381300Y-48027673D01*
X86362087Y-48086804D01*
X86311787Y-48123349D01*
X86280765Y-48128273D01*
X86051915Y-48128421D01*
X85992771Y-48109246D01*
X85980715Y-48098956D01*
X85838165Y-47956406D01*
X85809939Y-47901008D01*
X85808700Y-47885271D01*
X85808700Y-47798288D01*
X85795378Y-47731315D01*
X85775333Y-47701316D01*
X85744632Y-47655368D01*
X85668685Y-47604622D01*
X85668684Y-47604621D01*
X85615033Y-47593949D01*
X85601712Y-47591300D01*
X85238288Y-47591300D01*
X85227177Y-47593510D01*
X85171315Y-47604621D01*
X85095368Y-47655368D01*
X85044621Y-47731315D01*
X85031300Y-47798288D01*
X85031300Y-48028549D01*
X85012087Y-48087680D01*
X84961787Y-48124225D01*
X84930765Y-48129149D01*
X84702790Y-48129296D01*
X84643646Y-48110121D01*
X84631590Y-48099831D01*
X84488165Y-47956406D01*
X84459939Y-47901008D01*
X84458700Y-47885271D01*
X84458700Y-47798288D01*
X84445378Y-47731315D01*
X84425333Y-47701316D01*
X84394632Y-47655368D01*
X84318685Y-47604622D01*
X84318684Y-47604621D01*
X84265033Y-47593949D01*
X84251712Y-47591300D01*
X83888288Y-47591300D01*
X83877177Y-47593510D01*
X83821315Y-47604621D01*
X83745368Y-47655368D01*
X83694621Y-47731315D01*
X83681300Y-47798288D01*
X83681300Y-48029425D01*
X83662087Y-48088556D01*
X83611787Y-48125101D01*
X83580765Y-48130025D01*
X83353666Y-48130172D01*
X83294522Y-48110997D01*
X83282466Y-48100707D01*
X83138165Y-47956406D01*
X83109939Y-47901008D01*
X83108700Y-47885271D01*
X83108700Y-47798288D01*
X83095378Y-47731315D01*
X83075333Y-47701316D01*
X83044632Y-47655368D01*
X82968685Y-47604622D01*
X82968684Y-47604621D01*
X82915033Y-47593949D01*
X82901712Y-47591300D01*
X82538288Y-47591300D01*
X82527177Y-47593510D01*
X82471315Y-47604621D01*
X82395368Y-47655368D01*
X82344621Y-47731315D01*
X82331300Y-47798288D01*
X82331300Y-48030301D01*
X82312087Y-48089432D01*
X82261787Y-48125977D01*
X82230765Y-48130901D01*
X82004541Y-48131047D01*
X81945397Y-48111872D01*
X81933341Y-48101582D01*
X81788165Y-47956406D01*
X81759939Y-47901008D01*
X81758700Y-47885271D01*
X81758700Y-47798288D01*
X81745378Y-47731315D01*
X81725333Y-47701316D01*
X81694632Y-47655368D01*
X81618685Y-47604622D01*
X81618684Y-47604621D01*
X81565033Y-47593949D01*
X81551712Y-47591300D01*
X81188288Y-47591300D01*
X81177177Y-47593510D01*
X81121315Y-47604621D01*
X81045368Y-47655368D01*
X80994621Y-47731315D01*
X80981300Y-47798288D01*
X80981300Y-48031177D01*
X80962087Y-48090308D01*
X80911787Y-48126853D01*
X80880765Y-48131777D01*
X80655416Y-48131922D01*
X80596272Y-48112747D01*
X80584216Y-48102457D01*
X80438165Y-47956406D01*
X80409939Y-47901008D01*
X80408700Y-47885271D01*
X80408700Y-47798288D01*
X80395378Y-47731315D01*
X80375333Y-47701316D01*
X80344632Y-47655368D01*
X80268685Y-47604622D01*
X80268684Y-47604621D01*
X80215033Y-47593949D01*
X80201712Y-47591300D01*
X79838288Y-47591300D01*
X79827177Y-47593510D01*
X79771315Y-47604621D01*
X79695368Y-47655368D01*
X79644621Y-47731315D01*
X79631300Y-47798288D01*
X79631300Y-48032053D01*
X79612087Y-48091184D01*
X79561787Y-48127729D01*
X79530765Y-48132653D01*
X79306292Y-48132798D01*
X79247148Y-48113623D01*
X79235092Y-48103333D01*
X79088165Y-47956406D01*
X79059939Y-47901008D01*
X79058700Y-47885271D01*
X79058700Y-47798288D01*
X79045378Y-47731315D01*
X79025333Y-47701316D01*
X78994632Y-47655368D01*
X78918685Y-47604622D01*
X78918684Y-47604621D01*
X78865033Y-47593949D01*
X78851712Y-47591300D01*
X78488288Y-47591300D01*
X78477177Y-47593510D01*
X78421315Y-47604621D01*
X78345368Y-47655368D01*
X78294621Y-47731315D01*
X78281300Y-47798288D01*
X78281300Y-48032929D01*
X78262087Y-48092060D01*
X78211787Y-48128605D01*
X78180765Y-48133529D01*
X77957167Y-48133673D01*
X77898023Y-48114498D01*
X77885967Y-48104208D01*
X77738165Y-47956406D01*
X77709939Y-47901008D01*
X77708700Y-47885271D01*
X77708700Y-47798288D01*
X77695378Y-47731315D01*
X77675333Y-47701316D01*
X77644632Y-47655368D01*
X77568685Y-47604622D01*
X77568684Y-47604621D01*
X77515033Y-47593949D01*
X77501712Y-47591300D01*
X77138288Y-47591300D01*
X77127177Y-47593510D01*
X77071315Y-47604621D01*
X76995368Y-47655368D01*
X76944621Y-47731315D01*
X76931300Y-47798288D01*
X76931300Y-48033805D01*
X76912087Y-48092936D01*
X76861787Y-48129481D01*
X76830765Y-48134405D01*
X76608043Y-48134549D01*
X76548899Y-48115374D01*
X76536843Y-48105084D01*
X76388165Y-47956406D01*
X76359939Y-47901008D01*
X76358700Y-47885271D01*
X76358700Y-47798288D01*
X76345378Y-47731315D01*
X76325333Y-47701316D01*
X76294632Y-47655368D01*
X76218685Y-47604622D01*
X76218684Y-47604621D01*
X76165033Y-47593949D01*
X76151712Y-47591300D01*
X75788288Y-47591300D01*
X75777177Y-47593510D01*
X75721315Y-47604621D01*
X75645368Y-47655368D01*
X75594621Y-47731315D01*
X75581300Y-47798288D01*
X75581300Y-48034681D01*
X75562087Y-48093812D01*
X75511787Y-48130357D01*
X75480765Y-48135281D01*
X75258918Y-48135424D01*
X75199774Y-48116249D01*
X75187718Y-48105959D01*
X75038165Y-47956406D01*
X75009939Y-47901008D01*
X75008700Y-47885271D01*
X75008700Y-47798288D01*
X74995378Y-47731315D01*
X74975333Y-47701316D01*
X74944632Y-47655368D01*
X74868685Y-47604622D01*
X74868684Y-47604621D01*
X74815033Y-47593949D01*
X74801712Y-47591300D01*
X74438288Y-47591300D01*
X74427177Y-47593510D01*
X74371315Y-47604621D01*
X74295368Y-47655368D01*
X74244621Y-47731315D01*
X74231300Y-47798288D01*
X74231300Y-48035557D01*
X74212087Y-48094688D01*
X74161787Y-48131233D01*
X74130765Y-48136157D01*
X73909794Y-48136300D01*
X73850650Y-48117125D01*
X73838594Y-48106835D01*
X73688165Y-47956406D01*
X73659939Y-47901008D01*
X73658700Y-47885271D01*
X73658700Y-47798288D01*
X73645378Y-47731315D01*
X73625333Y-47701316D01*
X73594632Y-47655368D01*
X73518685Y-47604622D01*
X73518684Y-47604621D01*
X73465033Y-47593949D01*
X73451712Y-47591300D01*
X73088288Y-47591300D01*
X73077177Y-47593510D01*
X73021315Y-47604621D01*
X72945368Y-47655368D01*
X72894621Y-47731315D01*
X72881300Y-47798288D01*
X72881300Y-48036433D01*
X72862087Y-48095564D01*
X72811787Y-48132109D01*
X72780765Y-48137033D01*
X72560669Y-48137175D01*
X72501525Y-48118000D01*
X72489469Y-48107710D01*
X72338165Y-47956406D01*
X72309939Y-47901008D01*
X72308700Y-47885271D01*
X72308700Y-47798288D01*
X72295378Y-47731315D01*
X72275333Y-47701316D01*
X72244632Y-47655368D01*
X72168685Y-47604622D01*
X72168684Y-47604621D01*
X72115033Y-47593949D01*
X72101712Y-47591300D01*
X71738288Y-47591300D01*
X71727177Y-47593510D01*
X71671315Y-47604621D01*
X71595368Y-47655368D01*
X71544621Y-47731315D01*
X71531300Y-47798288D01*
X71531300Y-48037309D01*
X71512087Y-48096440D01*
X71461787Y-48132985D01*
X71430765Y-48137909D01*
X71211545Y-48138051D01*
X71152402Y-48118876D01*
X71140345Y-48108586D01*
X70988165Y-47956406D01*
X70959939Y-47901008D01*
X70958700Y-47885271D01*
X70958700Y-47798288D01*
X70945378Y-47731315D01*
X70925333Y-47701316D01*
X70894632Y-47655368D01*
X70818685Y-47604622D01*
X70818684Y-47604621D01*
X70765033Y-47593949D01*
X70751712Y-47591300D01*
X70388288Y-47591300D01*
X70377177Y-47593510D01*
X70321315Y-47604621D01*
X70245368Y-47655368D01*
X70194621Y-47731315D01*
X70181300Y-47798288D01*
X70181300Y-48038185D01*
X70162087Y-48097316D01*
X70111787Y-48133861D01*
X70080765Y-48138785D01*
X69862420Y-48138926D01*
X69803276Y-48119751D01*
X69791220Y-48109461D01*
X69638165Y-47956406D01*
X69609939Y-47901008D01*
X69608700Y-47885271D01*
X69608700Y-47798288D01*
X69595378Y-47731315D01*
X69575333Y-47701316D01*
X69544632Y-47655368D01*
X69468685Y-47604622D01*
X69468684Y-47604621D01*
X69415033Y-47593949D01*
X69401712Y-47591300D01*
X69038288Y-47591300D01*
X69027177Y-47593510D01*
X68971315Y-47604621D01*
X68895368Y-47655368D01*
X68844621Y-47731315D01*
X68831300Y-47798288D01*
X68831300Y-48039061D01*
X68812087Y-48098192D01*
X68761787Y-48134737D01*
X68730765Y-48139661D01*
X68513296Y-48139802D01*
X68454153Y-48120627D01*
X68442096Y-48110337D01*
X68288165Y-47956406D01*
X68259939Y-47901008D01*
X68258700Y-47885271D01*
X68258700Y-47798288D01*
X68245378Y-47731315D01*
X68225333Y-47701316D01*
X68194632Y-47655368D01*
X68118685Y-47604622D01*
X68118684Y-47604621D01*
X68065033Y-47593949D01*
X68051712Y-47591300D01*
X67688288Y-47591300D01*
X67677177Y-47593510D01*
X67621315Y-47604621D01*
X67545368Y-47655368D01*
X67494621Y-47731315D01*
X67481300Y-47798288D01*
X67481300Y-48039937D01*
X67462087Y-48099068D01*
X67411787Y-48135613D01*
X67380765Y-48140537D01*
X67164171Y-48140677D01*
X67105027Y-48121502D01*
X67092971Y-48111212D01*
X66938165Y-47956406D01*
X66909939Y-47901008D01*
X66908700Y-47885271D01*
X66908700Y-47798288D01*
X66895378Y-47731315D01*
X66875333Y-47701316D01*
X66844632Y-47655368D01*
X66768685Y-47604622D01*
X66768684Y-47604621D01*
X66715033Y-47593949D01*
X66701712Y-47591300D01*
X66338288Y-47591300D01*
X66327177Y-47593510D01*
X66271315Y-47604621D01*
X66195368Y-47655368D01*
X66144621Y-47731315D01*
X66131300Y-47798288D01*
X66131300Y-48040813D01*
X66112087Y-48099944D01*
X66061787Y-48136489D01*
X66030765Y-48141413D01*
X65815047Y-48141553D01*
X65755904Y-48122378D01*
X65743847Y-48112088D01*
X65588165Y-47956406D01*
X65559939Y-47901008D01*
X65558700Y-47885271D01*
X65558700Y-47798288D01*
X65545378Y-47731315D01*
X65525333Y-47701316D01*
X65494632Y-47655368D01*
X65418685Y-47604622D01*
X65418684Y-47604621D01*
X65365033Y-47593949D01*
X65351712Y-47591300D01*
X64988288Y-47591300D01*
X64977177Y-47593510D01*
X64921315Y-47604621D01*
X64845368Y-47655368D01*
X64794621Y-47731315D01*
X64781300Y-47798288D01*
X64781300Y-48041689D01*
X64762087Y-48100820D01*
X64711787Y-48137365D01*
X64680765Y-48142289D01*
X64465922Y-48142428D01*
X64406778Y-48123253D01*
X64394722Y-48112963D01*
X64238165Y-47956406D01*
X64209939Y-47901008D01*
X64208700Y-47885271D01*
X64208700Y-47798288D01*
X64195378Y-47731315D01*
X64175333Y-47701316D01*
X64144632Y-47655368D01*
X64068685Y-47604622D01*
X64068684Y-47604621D01*
X64015033Y-47593949D01*
X64001712Y-47591300D01*
X63638288Y-47591300D01*
X63627177Y-47593510D01*
X63571315Y-47604621D01*
X63495368Y-47655368D01*
X63444621Y-47731315D01*
X63431300Y-47798288D01*
X63431300Y-48042566D01*
X63412087Y-48101697D01*
X63361787Y-48138242D01*
X63330765Y-48143166D01*
X63116798Y-48143304D01*
X63057654Y-48124129D01*
X63045598Y-48113839D01*
X62888165Y-47956406D01*
X62859939Y-47901008D01*
X62858700Y-47885271D01*
X62858700Y-47798288D01*
X62845378Y-47731315D01*
X62825333Y-47701316D01*
X62794632Y-47655368D01*
X62718685Y-47604622D01*
X62718684Y-47604621D01*
X62665033Y-47593949D01*
X62651712Y-47591300D01*
X62288288Y-47591300D01*
X62277177Y-47593510D01*
X62221315Y-47604621D01*
X62145368Y-47655368D01*
X62094621Y-47731315D01*
X62081300Y-47798288D01*
X62081300Y-48043442D01*
X62062087Y-48102573D01*
X62011787Y-48139118D01*
X61980765Y-48144042D01*
X61767674Y-48144180D01*
X61708531Y-48125005D01*
X61696474Y-48114715D01*
X61538165Y-47956406D01*
X61509939Y-47901008D01*
X61508700Y-47885271D01*
X61508700Y-47798288D01*
X61495378Y-47731315D01*
X61475333Y-47701316D01*
X61444632Y-47655368D01*
X61368685Y-47604622D01*
X61368684Y-47604621D01*
X61315033Y-47593949D01*
X61301712Y-47591300D01*
X60938288Y-47591300D01*
X60927177Y-47593510D01*
X60871315Y-47604621D01*
X60795368Y-47655368D01*
X60744621Y-47731315D01*
X60731300Y-47798288D01*
X60731300Y-48044318D01*
X60712087Y-48103449D01*
X60661787Y-48139994D01*
X60630765Y-48144918D01*
X60418549Y-48145055D01*
X60359405Y-48125880D01*
X60347349Y-48115590D01*
X60188165Y-47956406D01*
X60159939Y-47901008D01*
X60158700Y-47885271D01*
X60158700Y-47798288D01*
X60145378Y-47731315D01*
X60125333Y-47701316D01*
X60094632Y-47655368D01*
X60018685Y-47604622D01*
X60018684Y-47604621D01*
X59965033Y-47593949D01*
X59951712Y-47591300D01*
X59588288Y-47591300D01*
X59577177Y-47593510D01*
X59521315Y-47604621D01*
X59445368Y-47655368D01*
X59394621Y-47731315D01*
X59381300Y-47798288D01*
X59381300Y-48045194D01*
X59362087Y-48104325D01*
X59311787Y-48140870D01*
X59280765Y-48145794D01*
X59069424Y-48145930D01*
X59010280Y-48126755D01*
X58998224Y-48116465D01*
X58838165Y-47956406D01*
X58809939Y-47901008D01*
X58808700Y-47885271D01*
X58808700Y-47798288D01*
X58795378Y-47731315D01*
X58775333Y-47701316D01*
X58744632Y-47655368D01*
X58668685Y-47604622D01*
X58668684Y-47604621D01*
X58615033Y-47593949D01*
X58601712Y-47591300D01*
X58238288Y-47591300D01*
X58227177Y-47593510D01*
X58171315Y-47604621D01*
X58095368Y-47655368D01*
X58044621Y-47731315D01*
X58031300Y-47798288D01*
X58031300Y-48046070D01*
X58012087Y-48105201D01*
X57961787Y-48141746D01*
X57930765Y-48146670D01*
X55671713Y-48148135D01*
X55612570Y-48128960D01*
X55580991Y-48088928D01*
X55580532Y-48089174D01*
X55579160Y-48086607D01*
X55578703Y-48086028D01*
X55578206Y-48084830D01*
X55578202Y-48084816D01*
X55567558Y-48064902D01*
X55480362Y-47901769D01*
X55480357Y-47901762D01*
X55348683Y-47741317D01*
X55348682Y-47741316D01*
X55188237Y-47609642D01*
X55188230Y-47609637D01*
X55005186Y-47511798D01*
X55005179Y-47511795D01*
X54806566Y-47451548D01*
X54806563Y-47451547D01*
X54806561Y-47451547D01*
X54600000Y-47431202D01*
X54393439Y-47451547D01*
X54393437Y-47451547D01*
X54393433Y-47451548D01*
X54194820Y-47511795D01*
X54194813Y-47511798D01*
X54011769Y-47609637D01*
X54011762Y-47609642D01*
X53851317Y-47741316D01*
X53851316Y-47741317D01*
X53719642Y-47901762D01*
X53719637Y-47901769D01*
X53621798Y-48084813D01*
X53620717Y-48087425D01*
X53619877Y-48088408D01*
X53619468Y-48089174D01*
X53619299Y-48089084D01*
X53580338Y-48134703D01*
X53527840Y-48149527D01*
X52900665Y-48149934D01*
X52841522Y-48130759D01*
X52804944Y-48080483D01*
X52800000Y-48049334D01*
X52800000Y-44751100D01*
X52819213Y-44691969D01*
X52869513Y-44655424D01*
X52900600Y-44650500D01*
X129707531Y-44650500D01*
X129766662Y-44669713D01*
G37*
%TD.AperFunction*%
%TD*%
%TA.AperFunction,Conductor*%
%TO.N,+Vdc*%
G36*
X53446301Y-48450839D02*
G01*
X53505403Y-48470128D01*
X53541883Y-48520475D01*
X53546282Y-48541577D01*
X53546359Y-48542363D01*
X53561547Y-48696561D01*
X53561547Y-48696563D01*
X53561548Y-48696566D01*
X53621795Y-48895179D01*
X53621798Y-48895186D01*
X53719637Y-49078230D01*
X53719642Y-49078237D01*
X53851316Y-49238682D01*
X53851317Y-49238683D01*
X54011762Y-49370357D01*
X54011769Y-49370362D01*
X54194813Y-49468201D01*
X54194820Y-49468204D01*
X54328641Y-49508797D01*
X54393439Y-49528453D01*
X54600000Y-49548798D01*
X54806561Y-49528453D01*
X54938425Y-49488453D01*
X55005179Y-49468204D01*
X55005186Y-49468201D01*
X55188230Y-49370362D01*
X55188231Y-49370360D01*
X55188237Y-49370358D01*
X55348683Y-49238683D01*
X55480358Y-49078237D01*
X55501739Y-49038237D01*
X55578201Y-48895186D01*
X55578204Y-48895179D01*
X55626875Y-48734729D01*
X55638453Y-48696561D01*
X55653423Y-48544571D01*
X55678339Y-48487611D01*
X55731979Y-48456172D01*
X55753660Y-48453835D01*
X57260834Y-48455793D01*
X57319937Y-48475082D01*
X57356417Y-48525429D01*
X57361300Y-48556392D01*
X57361300Y-48831711D01*
X57374621Y-48898684D01*
X57374622Y-48898685D01*
X57425368Y-48974632D01*
X57425369Y-48974633D01*
X57429346Y-48980584D01*
X57446300Y-49036475D01*
X57446300Y-49531732D01*
X57435335Y-49577403D01*
X57386274Y-49673691D01*
X57386272Y-49673696D01*
X57371300Y-49768225D01*
X57371300Y-50231774D01*
X57386272Y-50326303D01*
X57386274Y-50326308D01*
X57444326Y-50440243D01*
X57444327Y-50440244D01*
X57444329Y-50440247D01*
X57534753Y-50530671D01*
X57534755Y-50530672D01*
X57534756Y-50530673D01*
X57648691Y-50588725D01*
X57648695Y-50588727D01*
X57743226Y-50603699D01*
X57743228Y-50603700D01*
X57743230Y-50603700D01*
X58356772Y-50603700D01*
X58356772Y-50603699D01*
X58451305Y-50588727D01*
X58565247Y-50530671D01*
X58655671Y-50440247D01*
X58713727Y-50326305D01*
X58728700Y-50231770D01*
X58728700Y-49768230D01*
X58713727Y-49673695D01*
X58655671Y-49559753D01*
X58565247Y-49469329D01*
X58565244Y-49469327D01*
X58565243Y-49469326D01*
X58565244Y-49469326D01*
X58451308Y-49411274D01*
X58451303Y-49411272D01*
X58356774Y-49396300D01*
X58356770Y-49396300D01*
X58154300Y-49396300D01*
X58095169Y-49377087D01*
X58058624Y-49326787D01*
X58053700Y-49295700D01*
X58053700Y-49036475D01*
X58070654Y-48980584D01*
X58074630Y-48974633D01*
X58074632Y-48974632D01*
X58125378Y-48898685D01*
X58138700Y-48831712D01*
X58138700Y-48557663D01*
X58157913Y-48498532D01*
X58208213Y-48461987D01*
X58239423Y-48457064D01*
X58434020Y-48457316D01*
X58493124Y-48476606D01*
X58505022Y-48486781D01*
X58681835Y-48663594D01*
X58710061Y-48718992D01*
X58711300Y-48734729D01*
X58711300Y-48831711D01*
X58724621Y-48898684D01*
X58724622Y-48898685D01*
X58775368Y-48974632D01*
X58851315Y-49025378D01*
X58918288Y-49038700D01*
X58918289Y-49038700D01*
X59281711Y-49038700D01*
X59281712Y-49038700D01*
X59348685Y-49025378D01*
X59424632Y-48974632D01*
X59475378Y-48898685D01*
X59488700Y-48831712D01*
X59488700Y-48559417D01*
X59507913Y-48500286D01*
X59558213Y-48463741D01*
X59589428Y-48458817D01*
X59785775Y-48459072D01*
X59844880Y-48478362D01*
X59856778Y-48488537D01*
X60031835Y-48663594D01*
X60060061Y-48718992D01*
X60061300Y-48734729D01*
X60061300Y-48831711D01*
X60074621Y-48898684D01*
X60074622Y-48898685D01*
X60125368Y-48974632D01*
X60201315Y-49025378D01*
X60268288Y-49038700D01*
X60268289Y-49038700D01*
X60631711Y-49038700D01*
X60631712Y-49038700D01*
X60698685Y-49025378D01*
X60774632Y-48974632D01*
X60825378Y-48898685D01*
X60838700Y-48831712D01*
X60838700Y-48561169D01*
X60857913Y-48502038D01*
X60908213Y-48465493D01*
X60939420Y-48460570D01*
X61137534Y-48460827D01*
X61196634Y-48480116D01*
X61208532Y-48490291D01*
X61381835Y-48663594D01*
X61410061Y-48718992D01*
X61411300Y-48734729D01*
X61411300Y-48831711D01*
X61424621Y-48898684D01*
X61424622Y-48898685D01*
X61475368Y-48974632D01*
X61551315Y-49025378D01*
X61618288Y-49038700D01*
X61618289Y-49038700D01*
X61981711Y-49038700D01*
X61981712Y-49038700D01*
X62048685Y-49025378D01*
X62124632Y-48974632D01*
X62175378Y-48898685D01*
X62188700Y-48831712D01*
X62188700Y-48562923D01*
X62207913Y-48503792D01*
X62258213Y-48467247D01*
X62289424Y-48462323D01*
X62489287Y-48462583D01*
X62548390Y-48481872D01*
X62560288Y-48492047D01*
X62731835Y-48663594D01*
X62760061Y-48718992D01*
X62761300Y-48734729D01*
X62761300Y-48831711D01*
X62774621Y-48898684D01*
X62774622Y-48898685D01*
X62825368Y-48974632D01*
X62901315Y-49025378D01*
X62968288Y-49038700D01*
X62968289Y-49038700D01*
X63331711Y-49038700D01*
X63331712Y-49038700D01*
X63398685Y-49025378D01*
X63474632Y-48974632D01*
X63525378Y-48898685D01*
X63538700Y-48831712D01*
X63538700Y-48564677D01*
X63557913Y-48505546D01*
X63608213Y-48469001D01*
X63639428Y-48464077D01*
X63841042Y-48464339D01*
X63900146Y-48483628D01*
X63912044Y-48493803D01*
X64081835Y-48663594D01*
X64110061Y-48718992D01*
X64111300Y-48734729D01*
X64111300Y-48831711D01*
X64124621Y-48898684D01*
X64124622Y-48898685D01*
X64175368Y-48974632D01*
X64251315Y-49025378D01*
X64318288Y-49038700D01*
X64318289Y-49038700D01*
X64681711Y-49038700D01*
X64681712Y-49038700D01*
X64748685Y-49025378D01*
X64824632Y-48974632D01*
X64875378Y-48898685D01*
X64888700Y-48831712D01*
X64888700Y-48566429D01*
X64907913Y-48507298D01*
X64958213Y-48470753D01*
X64989422Y-48465830D01*
X65192799Y-48466094D01*
X65251901Y-48485383D01*
X65263799Y-48495558D01*
X65431835Y-48663594D01*
X65460061Y-48718992D01*
X65461300Y-48734729D01*
X65461300Y-48831711D01*
X65474621Y-48898684D01*
X65474622Y-48898685D01*
X65525368Y-48974632D01*
X65601315Y-49025378D01*
X65668288Y-49038700D01*
X65668289Y-49038700D01*
X66031711Y-49038700D01*
X66031712Y-49038700D01*
X66098685Y-49025378D01*
X66174632Y-48974632D01*
X66225378Y-48898685D01*
X66238700Y-48831712D01*
X66238700Y-48568183D01*
X66257913Y-48509052D01*
X66308213Y-48472507D01*
X66339425Y-48467583D01*
X66544553Y-48467850D01*
X66603657Y-48487139D01*
X66615555Y-48497314D01*
X66781835Y-48663594D01*
X66810061Y-48718992D01*
X66811300Y-48734729D01*
X66811300Y-48831711D01*
X66824621Y-48898684D01*
X66824622Y-48898685D01*
X66875368Y-48974632D01*
X66951315Y-49025378D01*
X67018288Y-49038700D01*
X67018289Y-49038700D01*
X67381711Y-49038700D01*
X67381712Y-49038700D01*
X67448685Y-49025378D01*
X67524632Y-48974632D01*
X67575378Y-48898685D01*
X67588700Y-48831712D01*
X67588700Y-48569936D01*
X67607913Y-48510805D01*
X67658213Y-48474260D01*
X67689425Y-48469336D01*
X67896308Y-48469605D01*
X67955413Y-48488895D01*
X67967311Y-48499070D01*
X68131835Y-48663594D01*
X68160061Y-48718992D01*
X68161300Y-48734729D01*
X68161300Y-48831711D01*
X68174621Y-48898684D01*
X68174622Y-48898685D01*
X68225368Y-48974632D01*
X68301315Y-49025378D01*
X68368288Y-49038700D01*
X68368289Y-49038700D01*
X68731711Y-49038700D01*
X68731712Y-49038700D01*
X68798685Y-49025378D01*
X68874632Y-48974632D01*
X68925378Y-48898685D01*
X68938700Y-48831712D01*
X68938700Y-48571689D01*
X68957913Y-48512558D01*
X69008213Y-48476013D01*
X69039423Y-48471090D01*
X69248065Y-48471361D01*
X69307168Y-48490650D01*
X69319066Y-48500825D01*
X69481835Y-48663594D01*
X69510061Y-48718992D01*
X69511300Y-48734729D01*
X69511300Y-48831711D01*
X69524621Y-48898684D01*
X69524622Y-48898685D01*
X69575368Y-48974632D01*
X69651315Y-49025378D01*
X69718288Y-49038700D01*
X69718289Y-49038700D01*
X70081711Y-49038700D01*
X70081712Y-49038700D01*
X70148685Y-49025378D01*
X70224632Y-48974632D01*
X70275378Y-48898685D01*
X70288700Y-48831712D01*
X70288700Y-48573442D01*
X70307913Y-48514311D01*
X70358213Y-48477766D01*
X70389422Y-48472843D01*
X70599822Y-48473116D01*
X70658923Y-48492405D01*
X70670821Y-48502580D01*
X70831835Y-48663594D01*
X70860061Y-48718992D01*
X70861300Y-48734729D01*
X70861300Y-48831711D01*
X70874621Y-48898684D01*
X70874622Y-48898685D01*
X70925368Y-48974632D01*
X71001315Y-49025378D01*
X71068288Y-49038700D01*
X71068289Y-49038700D01*
X71431711Y-49038700D01*
X71431712Y-49038700D01*
X71498685Y-49025378D01*
X71574632Y-48974632D01*
X71625378Y-48898685D01*
X71638700Y-48831712D01*
X71638700Y-48575196D01*
X71657913Y-48516065D01*
X71708213Y-48479520D01*
X71739425Y-48474596D01*
X71951575Y-48474872D01*
X72010679Y-48494161D01*
X72022577Y-48504336D01*
X72181835Y-48663594D01*
X72210061Y-48718992D01*
X72211300Y-48734729D01*
X72211300Y-48831711D01*
X72224621Y-48898684D01*
X72224622Y-48898685D01*
X72275368Y-48974632D01*
X72351315Y-49025378D01*
X72418288Y-49038700D01*
X72418289Y-49038700D01*
X72781711Y-49038700D01*
X72781712Y-49038700D01*
X72848685Y-49025378D01*
X72924632Y-48974632D01*
X72975378Y-48898685D01*
X72988700Y-48831712D01*
X72988700Y-48576949D01*
X73007913Y-48517818D01*
X73058213Y-48481273D01*
X73089425Y-48476349D01*
X73303331Y-48476627D01*
X73362435Y-48495917D01*
X73374333Y-48506092D01*
X73531835Y-48663594D01*
X73560061Y-48718992D01*
X73561300Y-48734729D01*
X73561300Y-48831711D01*
X73574621Y-48898684D01*
X73574622Y-48898685D01*
X73625368Y-48974632D01*
X73701315Y-49025378D01*
X73768288Y-49038700D01*
X73768289Y-49038700D01*
X74131711Y-49038700D01*
X74131712Y-49038700D01*
X74198685Y-49025378D01*
X74274632Y-48974632D01*
X74325378Y-48898685D01*
X74338700Y-48831712D01*
X74338700Y-48578702D01*
X74357913Y-48519571D01*
X74408213Y-48483026D01*
X74439423Y-48478103D01*
X74655087Y-48478383D01*
X74714190Y-48497672D01*
X74726088Y-48507847D01*
X74881835Y-48663594D01*
X74910061Y-48718992D01*
X74911300Y-48734729D01*
X74911300Y-48831711D01*
X74924621Y-48898684D01*
X74924622Y-48898685D01*
X74975368Y-48974632D01*
X75051315Y-49025378D01*
X75118288Y-49038700D01*
X75118289Y-49038700D01*
X75481711Y-49038700D01*
X75481712Y-49038700D01*
X75548685Y-49025378D01*
X75624632Y-48974632D01*
X75675378Y-48898685D01*
X75688700Y-48831712D01*
X75688700Y-48580455D01*
X75707913Y-48521324D01*
X75758213Y-48484779D01*
X75789422Y-48479856D01*
X76006842Y-48480138D01*
X76065946Y-48499428D01*
X76077844Y-48509603D01*
X76231835Y-48663594D01*
X76260061Y-48718992D01*
X76261300Y-48734729D01*
X76261300Y-48831711D01*
X76274621Y-48898684D01*
X76274622Y-48898685D01*
X76325368Y-48974632D01*
X76401315Y-49025378D01*
X76468288Y-49038700D01*
X76468289Y-49038700D01*
X76831711Y-49038700D01*
X76831712Y-49038700D01*
X76898685Y-49025378D01*
X76974632Y-48974632D01*
X77025378Y-48898685D01*
X77038700Y-48831712D01*
X77038700Y-48582208D01*
X77057913Y-48523077D01*
X77108213Y-48486532D01*
X77139420Y-48481609D01*
X77358598Y-48481894D01*
X77417701Y-48501183D01*
X77429599Y-48511358D01*
X77581835Y-48663594D01*
X77610061Y-48718992D01*
X77611300Y-48734729D01*
X77611300Y-48831711D01*
X77624621Y-48898684D01*
X77624622Y-48898685D01*
X77675368Y-48974632D01*
X77751315Y-49025378D01*
X77818288Y-49038700D01*
X77818289Y-49038700D01*
X78181711Y-49038700D01*
X78181712Y-49038700D01*
X78248685Y-49025378D01*
X78324632Y-48974632D01*
X78375378Y-48898685D01*
X78388700Y-48831712D01*
X78388700Y-48583962D01*
X78407913Y-48524831D01*
X78458213Y-48488286D01*
X78489425Y-48483362D01*
X78710353Y-48483649D01*
X78769457Y-48502939D01*
X78781355Y-48513114D01*
X78931835Y-48663594D01*
X78960061Y-48718992D01*
X78961300Y-48734729D01*
X78961300Y-48831711D01*
X78974621Y-48898684D01*
X78974622Y-48898685D01*
X79025368Y-48974632D01*
X79101315Y-49025378D01*
X79168288Y-49038700D01*
X79168289Y-49038700D01*
X79531711Y-49038700D01*
X79531712Y-49038700D01*
X79598685Y-49025378D01*
X79674632Y-48974632D01*
X79725378Y-48898685D01*
X79738700Y-48831712D01*
X79738700Y-48585715D01*
X79757913Y-48526584D01*
X79808213Y-48490039D01*
X79839423Y-48485116D01*
X80062110Y-48485405D01*
X80121212Y-48504694D01*
X80133110Y-48514869D01*
X80281835Y-48663594D01*
X80310061Y-48718992D01*
X80311300Y-48734729D01*
X80311300Y-48831711D01*
X80324621Y-48898684D01*
X80324622Y-48898685D01*
X80375368Y-48974632D01*
X80451315Y-49025378D01*
X80518288Y-49038700D01*
X80518289Y-49038700D01*
X80881711Y-49038700D01*
X80881712Y-49038700D01*
X80948685Y-49025378D01*
X81024632Y-48974632D01*
X81075378Y-48898685D01*
X81088700Y-48831712D01*
X81088700Y-48587468D01*
X81107913Y-48528337D01*
X81158213Y-48491792D01*
X81189422Y-48486869D01*
X81413864Y-48487160D01*
X81472968Y-48506450D01*
X81484866Y-48516625D01*
X81631835Y-48663594D01*
X81660061Y-48718992D01*
X81661300Y-48734729D01*
X81661300Y-48831711D01*
X81674621Y-48898684D01*
X81674622Y-48898685D01*
X81725368Y-48974632D01*
X81801315Y-49025378D01*
X81868288Y-49038700D01*
X81868289Y-49038700D01*
X82231711Y-49038700D01*
X82231712Y-49038700D01*
X82298685Y-49025378D01*
X82374632Y-48974632D01*
X82425378Y-48898685D01*
X82438700Y-48831712D01*
X82438700Y-48589221D01*
X82457913Y-48530090D01*
X82508213Y-48493545D01*
X82539420Y-48488622D01*
X82765621Y-48488916D01*
X82824723Y-48508205D01*
X82836621Y-48518380D01*
X82981835Y-48663594D01*
X83010061Y-48718992D01*
X83011300Y-48734729D01*
X83011300Y-48831711D01*
X83024621Y-48898684D01*
X83024622Y-48898685D01*
X83075368Y-48974632D01*
X83151315Y-49025378D01*
X83218288Y-49038700D01*
X83218289Y-49038700D01*
X83581711Y-49038700D01*
X83581712Y-49038700D01*
X83648685Y-49025378D01*
X83724632Y-48974632D01*
X83775378Y-48898685D01*
X83788700Y-48831712D01*
X83788700Y-48590975D01*
X83807913Y-48531844D01*
X83858213Y-48495299D01*
X83889425Y-48490375D01*
X84117375Y-48490671D01*
X84176479Y-48509961D01*
X84188377Y-48520136D01*
X84331835Y-48663594D01*
X84360061Y-48718992D01*
X84361300Y-48734729D01*
X84361300Y-48831711D01*
X84374621Y-48898684D01*
X84374622Y-48898685D01*
X84425368Y-48974632D01*
X84501315Y-49025378D01*
X84568288Y-49038700D01*
X84568289Y-49038700D01*
X84931711Y-49038700D01*
X84931712Y-49038700D01*
X84998685Y-49025378D01*
X85074632Y-48974632D01*
X85125378Y-48898685D01*
X85138700Y-48831712D01*
X85138700Y-48592728D01*
X85157913Y-48533597D01*
X85208213Y-48497052D01*
X85239423Y-48492129D01*
X85469132Y-48492427D01*
X85528234Y-48511716D01*
X85540132Y-48521891D01*
X85681835Y-48663594D01*
X85710061Y-48718992D01*
X85711300Y-48734729D01*
X85711300Y-48831711D01*
X85724621Y-48898684D01*
X85724622Y-48898685D01*
X85775368Y-48974632D01*
X85851315Y-49025378D01*
X85918288Y-49038700D01*
X85918289Y-49038700D01*
X86281711Y-49038700D01*
X86281712Y-49038700D01*
X86348685Y-49025378D01*
X86424632Y-48974632D01*
X86475378Y-48898685D01*
X86488700Y-48831712D01*
X86488700Y-48594481D01*
X86507913Y-48535350D01*
X86558213Y-48498805D01*
X86589422Y-48493882D01*
X86820886Y-48494182D01*
X86879990Y-48513472D01*
X86891888Y-48523647D01*
X87031835Y-48663594D01*
X87060061Y-48718992D01*
X87061300Y-48734729D01*
X87061300Y-48831711D01*
X87074621Y-48898684D01*
X87074622Y-48898685D01*
X87125368Y-48974632D01*
X87201315Y-49025378D01*
X87268288Y-49038700D01*
X87268289Y-49038700D01*
X87631711Y-49038700D01*
X87631712Y-49038700D01*
X87698685Y-49025378D01*
X87774632Y-48974632D01*
X87825378Y-48898685D01*
X87838700Y-48831712D01*
X87838700Y-48596234D01*
X87857913Y-48537103D01*
X87908213Y-48500558D01*
X87939420Y-48495635D01*
X88172643Y-48495938D01*
X88231745Y-48515227D01*
X88243643Y-48525402D01*
X88381835Y-48663594D01*
X88410061Y-48718992D01*
X88411300Y-48734729D01*
X88411300Y-48831711D01*
X88424621Y-48898684D01*
X88424622Y-48898685D01*
X88475368Y-48974632D01*
X88551315Y-49025378D01*
X88618288Y-49038700D01*
X88618289Y-49038700D01*
X88981711Y-49038700D01*
X88981712Y-49038700D01*
X89048685Y-49025378D01*
X89124632Y-48974632D01*
X89175378Y-48898685D01*
X89188700Y-48831712D01*
X89188700Y-48597988D01*
X89207913Y-48538857D01*
X89258213Y-48502312D01*
X89289425Y-48497388D01*
X89524398Y-48497694D01*
X89583501Y-48516983D01*
X89595399Y-48527158D01*
X89731835Y-48663594D01*
X89760061Y-48718992D01*
X89761300Y-48734729D01*
X89761300Y-48831711D01*
X89774621Y-48898684D01*
X89774622Y-48898685D01*
X89825368Y-48974632D01*
X89901315Y-49025378D01*
X89968288Y-49038700D01*
X89968289Y-49038700D01*
X90331711Y-49038700D01*
X90331712Y-49038700D01*
X90398685Y-49025378D01*
X90474632Y-48974632D01*
X90525378Y-48898685D01*
X90538700Y-48831712D01*
X90538700Y-48599741D01*
X90557913Y-48540610D01*
X90608213Y-48504065D01*
X90639423Y-48499142D01*
X90876152Y-48499449D01*
X90935257Y-48518739D01*
X90947155Y-48528914D01*
X91081835Y-48663594D01*
X91110061Y-48718992D01*
X91111300Y-48734729D01*
X91111300Y-48831711D01*
X91124621Y-48898684D01*
X91124622Y-48898685D01*
X91175368Y-48974632D01*
X91251315Y-49025378D01*
X91318288Y-49038700D01*
X91318289Y-49038700D01*
X91681711Y-49038700D01*
X91681712Y-49038700D01*
X91748685Y-49025378D01*
X91824632Y-48974632D01*
X91875378Y-48898685D01*
X91888700Y-48831712D01*
X91888700Y-48601494D01*
X91907913Y-48542363D01*
X91958213Y-48505818D01*
X91989422Y-48500895D01*
X92227909Y-48501205D01*
X92287012Y-48520494D01*
X92298910Y-48530669D01*
X92431835Y-48663594D01*
X92460061Y-48718992D01*
X92461300Y-48734729D01*
X92461300Y-48831711D01*
X92474621Y-48898684D01*
X92474622Y-48898685D01*
X92525368Y-48974632D01*
X92601315Y-49025378D01*
X92668288Y-49038700D01*
X92668289Y-49038700D01*
X93031711Y-49038700D01*
X93031712Y-49038700D01*
X93098685Y-49025378D01*
X93174632Y-48974632D01*
X93225378Y-48898685D01*
X93238700Y-48831712D01*
X93238700Y-48603247D01*
X93257913Y-48544116D01*
X93308213Y-48507571D01*
X93339420Y-48502648D01*
X93579665Y-48502960D01*
X93638767Y-48522249D01*
X93650665Y-48532424D01*
X93781835Y-48663594D01*
X93810061Y-48718992D01*
X93811300Y-48734729D01*
X93811300Y-48831711D01*
X93824621Y-48898684D01*
X93824622Y-48898685D01*
X93875368Y-48974632D01*
X93951315Y-49025378D01*
X94018288Y-49038700D01*
X94018289Y-49038700D01*
X94381711Y-49038700D01*
X94381712Y-49038700D01*
X94448685Y-49025378D01*
X94524632Y-48974632D01*
X94575378Y-48898685D01*
X94588700Y-48831712D01*
X94588700Y-48605001D01*
X94607913Y-48545870D01*
X94658213Y-48509325D01*
X94689425Y-48504401D01*
X94931420Y-48504716D01*
X94990523Y-48524005D01*
X95002421Y-48534180D01*
X95131835Y-48663594D01*
X95160061Y-48718992D01*
X95161300Y-48734729D01*
X95161300Y-48831711D01*
X95174621Y-48898684D01*
X95174622Y-48898685D01*
X95225368Y-48974632D01*
X95301315Y-49025378D01*
X95368288Y-49038700D01*
X95368289Y-49038700D01*
X95731711Y-49038700D01*
X95731712Y-49038700D01*
X95798685Y-49025378D01*
X95874632Y-48974632D01*
X95925378Y-48898685D01*
X95938700Y-48831712D01*
X95938700Y-48606754D01*
X95957913Y-48547623D01*
X96008213Y-48511078D01*
X96039424Y-48506155D01*
X96283175Y-48506471D01*
X96342279Y-48525761D01*
X96354177Y-48535936D01*
X96481835Y-48663594D01*
X96510061Y-48718992D01*
X96511300Y-48734729D01*
X96511300Y-48831711D01*
X96524621Y-48898684D01*
X96524622Y-48898685D01*
X96575368Y-48974632D01*
X96651315Y-49025378D01*
X96718288Y-49038700D01*
X96718289Y-49038700D01*
X97081711Y-49038700D01*
X97081712Y-49038700D01*
X97148685Y-49025378D01*
X97224632Y-48974632D01*
X97275378Y-48898685D01*
X97288700Y-48831712D01*
X97288700Y-48608507D01*
X97307913Y-48549376D01*
X97358213Y-48512831D01*
X97389422Y-48507908D01*
X97634931Y-48508227D01*
X97694034Y-48527516D01*
X97705932Y-48537691D01*
X97831835Y-48663594D01*
X97860061Y-48718992D01*
X97861300Y-48734729D01*
X97861300Y-48831711D01*
X97874621Y-48898684D01*
X97874622Y-48898685D01*
X97925368Y-48974632D01*
X98001315Y-49025378D01*
X98068288Y-49038700D01*
X98068289Y-49038700D01*
X98431711Y-49038700D01*
X98431712Y-49038700D01*
X98498685Y-49025378D01*
X98574632Y-48974632D01*
X98625378Y-48898685D01*
X98638700Y-48831712D01*
X98638700Y-48610260D01*
X98657913Y-48551129D01*
X98708213Y-48514584D01*
X98739420Y-48509661D01*
X98986688Y-48509982D01*
X99045789Y-48529271D01*
X99057687Y-48539446D01*
X99181835Y-48663594D01*
X99210061Y-48718992D01*
X99211300Y-48734729D01*
X99211300Y-48831711D01*
X99224621Y-48898684D01*
X99224622Y-48898685D01*
X99275368Y-48974632D01*
X99351315Y-49025378D01*
X99418288Y-49038700D01*
X99418289Y-49038700D01*
X99781711Y-49038700D01*
X99781712Y-49038700D01*
X99848685Y-49025378D01*
X99924632Y-48974632D01*
X99975378Y-48898685D01*
X99988700Y-48831712D01*
X99988700Y-48612014D01*
X100007913Y-48552883D01*
X100058213Y-48516338D01*
X100089425Y-48511414D01*
X100338440Y-48511738D01*
X100397546Y-48531028D01*
X100409444Y-48541203D01*
X100531835Y-48663594D01*
X100560061Y-48718992D01*
X100561300Y-48734729D01*
X100561300Y-48831711D01*
X100574621Y-48898684D01*
X100574622Y-48898685D01*
X100625368Y-48974632D01*
X100701315Y-49025378D01*
X100768288Y-49038700D01*
X100768289Y-49038700D01*
X101131711Y-49038700D01*
X101131712Y-49038700D01*
X101198685Y-49025378D01*
X101274632Y-48974632D01*
X101325378Y-48898685D01*
X101338700Y-48831712D01*
X101338700Y-48613767D01*
X101357913Y-48554636D01*
X101408213Y-48518091D01*
X101439424Y-48513168D01*
X101690197Y-48513493D01*
X101749301Y-48532783D01*
X101761199Y-48542958D01*
X101881835Y-48663594D01*
X101910061Y-48718992D01*
X101911300Y-48734729D01*
X101911300Y-48831711D01*
X101924621Y-48898684D01*
X101924622Y-48898685D01*
X101975368Y-48974632D01*
X102051315Y-49025378D01*
X102118288Y-49038700D01*
X102118289Y-49038700D01*
X102481711Y-49038700D01*
X102481712Y-49038700D01*
X102548685Y-49025378D01*
X102624632Y-48974632D01*
X102675378Y-48898685D01*
X102688700Y-48831712D01*
X102688700Y-48615520D01*
X102707913Y-48556389D01*
X102758213Y-48519844D01*
X102789422Y-48514921D01*
X103041953Y-48515249D01*
X103101056Y-48534538D01*
X103112954Y-48544713D01*
X103231835Y-48663594D01*
X103260061Y-48718992D01*
X103261300Y-48734729D01*
X103261300Y-48831711D01*
X103274621Y-48898684D01*
X103274622Y-48898685D01*
X103325368Y-48974632D01*
X103401315Y-49025378D01*
X103468288Y-49038700D01*
X103468289Y-49038700D01*
X103831711Y-49038700D01*
X103831712Y-49038700D01*
X103898685Y-49025378D01*
X103974632Y-48974632D01*
X104025378Y-48898685D01*
X104038700Y-48831712D01*
X104038700Y-48617273D01*
X104057913Y-48558142D01*
X104108213Y-48521597D01*
X104139421Y-48516674D01*
X104393710Y-48517004D01*
X104452811Y-48536293D01*
X104464709Y-48546468D01*
X104581835Y-48663594D01*
X104610061Y-48718992D01*
X104611300Y-48734729D01*
X104611300Y-48831711D01*
X104624621Y-48898684D01*
X104624622Y-48898685D01*
X104675368Y-48974632D01*
X104751315Y-49025378D01*
X104818288Y-49038700D01*
X104818289Y-49038700D01*
X105181711Y-49038700D01*
X105181712Y-49038700D01*
X105248685Y-49025378D01*
X105324632Y-48974632D01*
X105375378Y-48898685D01*
X105388700Y-48831712D01*
X105388700Y-48619027D01*
X105407913Y-48559896D01*
X105458213Y-48523351D01*
X105489425Y-48518427D01*
X105745463Y-48518760D01*
X105804568Y-48538050D01*
X105816466Y-48548225D01*
X105931835Y-48663594D01*
X105960061Y-48718992D01*
X105961300Y-48734729D01*
X105961300Y-48831711D01*
X105974621Y-48898684D01*
X105974622Y-48898685D01*
X106025368Y-48974632D01*
X106101315Y-49025378D01*
X106168288Y-49038700D01*
X106168289Y-49038700D01*
X106531711Y-49038700D01*
X106531712Y-49038700D01*
X106598685Y-49025378D01*
X106674632Y-48974632D01*
X106725378Y-48898685D01*
X106738700Y-48831712D01*
X106738700Y-48620780D01*
X106757913Y-48561649D01*
X106808213Y-48525104D01*
X106839424Y-48520181D01*
X107097219Y-48520515D01*
X107156323Y-48539805D01*
X107168221Y-48549980D01*
X107281835Y-48663594D01*
X107310061Y-48718992D01*
X107311300Y-48734729D01*
X107311300Y-48831711D01*
X107324621Y-48898684D01*
X107324622Y-48898685D01*
X107375368Y-48974632D01*
X107451315Y-49025378D01*
X107518288Y-49038700D01*
X107518289Y-49038700D01*
X107881711Y-49038700D01*
X107881712Y-49038700D01*
X107948685Y-49025378D01*
X108024632Y-48974632D01*
X108075378Y-48898685D01*
X108088700Y-48831712D01*
X108088700Y-48622533D01*
X108107913Y-48563402D01*
X108158213Y-48526857D01*
X108189422Y-48521934D01*
X108448976Y-48522271D01*
X108508078Y-48541560D01*
X108519976Y-48551735D01*
X108631835Y-48663594D01*
X108660061Y-48718992D01*
X108661300Y-48734729D01*
X108661300Y-48831711D01*
X108674621Y-48898684D01*
X108674622Y-48898685D01*
X108725368Y-48974632D01*
X108801315Y-49025378D01*
X108868288Y-49038700D01*
X108868289Y-49038700D01*
X109231711Y-49038700D01*
X109231712Y-49038700D01*
X109298685Y-49025378D01*
X109374632Y-48974632D01*
X109425378Y-48898685D01*
X109438700Y-48831712D01*
X109438700Y-48624286D01*
X109457913Y-48565155D01*
X109508213Y-48528610D01*
X109539421Y-48523687D01*
X109800730Y-48524026D01*
X109859834Y-48543316D01*
X109871732Y-48553491D01*
X109981835Y-48663594D01*
X110010061Y-48718992D01*
X110011300Y-48734729D01*
X110011300Y-48831711D01*
X110024621Y-48898684D01*
X110024622Y-48898685D01*
X110075368Y-48974632D01*
X110151315Y-49025378D01*
X110218288Y-49038700D01*
X110218289Y-49038700D01*
X110581711Y-49038700D01*
X110581712Y-49038700D01*
X110648685Y-49025378D01*
X110724632Y-48974632D01*
X110775378Y-48898685D01*
X110788700Y-48831712D01*
X110788700Y-48626040D01*
X110807913Y-48566909D01*
X110858213Y-48530364D01*
X110889425Y-48525440D01*
X111152485Y-48525782D01*
X111211590Y-48545072D01*
X111223488Y-48555247D01*
X111331835Y-48663594D01*
X111360061Y-48718992D01*
X111361300Y-48734729D01*
X111361300Y-48831711D01*
X111374621Y-48898684D01*
X111374622Y-48898685D01*
X111425368Y-48974632D01*
X111501315Y-49025378D01*
X111568288Y-49038700D01*
X111568289Y-49038700D01*
X111931711Y-49038700D01*
X111931712Y-49038700D01*
X111998685Y-49025378D01*
X112074632Y-48974632D01*
X112125378Y-48898685D01*
X112138700Y-48831712D01*
X112138700Y-48627793D01*
X112157913Y-48568662D01*
X112208213Y-48532117D01*
X112239424Y-48527194D01*
X112504241Y-48527537D01*
X112563345Y-48546827D01*
X112575243Y-48557002D01*
X112681835Y-48663594D01*
X112710061Y-48718992D01*
X112711300Y-48734729D01*
X112711300Y-48831711D01*
X112724621Y-48898684D01*
X112724622Y-48898685D01*
X112775368Y-48974632D01*
X112851315Y-49025378D01*
X112918288Y-49038700D01*
X112918289Y-49038700D01*
X113281711Y-49038700D01*
X113281712Y-49038700D01*
X113348685Y-49025378D01*
X113424632Y-48974632D01*
X113475378Y-48898685D01*
X113488700Y-48831712D01*
X113488700Y-48629546D01*
X113507913Y-48570415D01*
X113558213Y-48533870D01*
X113589422Y-48528947D01*
X113855998Y-48529293D01*
X113915100Y-48548582D01*
X113926998Y-48558757D01*
X114031835Y-48663594D01*
X114060061Y-48718992D01*
X114061300Y-48734729D01*
X114061300Y-48831711D01*
X114074621Y-48898684D01*
X114074622Y-48898685D01*
X114125368Y-48974632D01*
X114201315Y-49025378D01*
X114268288Y-49038700D01*
X114268289Y-49038700D01*
X114631711Y-49038700D01*
X114631712Y-49038700D01*
X114698685Y-49025378D01*
X114774632Y-48974632D01*
X114825378Y-48898685D01*
X114838700Y-48831712D01*
X114838700Y-48631299D01*
X114857913Y-48572168D01*
X114908213Y-48535623D01*
X114939421Y-48530700D01*
X115207753Y-48531049D01*
X115266856Y-48550338D01*
X115278754Y-48560513D01*
X115381835Y-48663594D01*
X115410061Y-48718992D01*
X115411300Y-48734729D01*
X115411300Y-48831711D01*
X115424621Y-48898684D01*
X115424622Y-48898685D01*
X115475368Y-48974632D01*
X115551315Y-49025378D01*
X115618288Y-49038700D01*
X115618289Y-49038700D01*
X115981711Y-49038700D01*
X115981712Y-49038700D01*
X116048685Y-49025378D01*
X116124632Y-48974632D01*
X116175378Y-48898685D01*
X116188700Y-48831712D01*
X116188700Y-48633052D01*
X116207913Y-48573921D01*
X116258213Y-48537376D01*
X116289419Y-48532453D01*
X116559509Y-48532804D01*
X116618611Y-48552093D01*
X116630509Y-48562268D01*
X116731835Y-48663594D01*
X116760061Y-48718992D01*
X116761300Y-48734729D01*
X116761300Y-48831711D01*
X116774621Y-48898684D01*
X116774622Y-48898685D01*
X116825368Y-48974632D01*
X116901315Y-49025378D01*
X116968288Y-49038700D01*
X116968289Y-49038700D01*
X117331711Y-49038700D01*
X117331712Y-49038700D01*
X117398685Y-49025378D01*
X117474632Y-48974632D01*
X117525378Y-48898685D01*
X117538700Y-48831712D01*
X117538700Y-48634806D01*
X117557913Y-48575675D01*
X117608213Y-48539130D01*
X117639424Y-48534207D01*
X117911264Y-48534560D01*
X117970367Y-48553849D01*
X117982265Y-48564024D01*
X118081835Y-48663594D01*
X118110061Y-48718992D01*
X118111300Y-48734729D01*
X118111300Y-48831711D01*
X118124621Y-48898684D01*
X118124622Y-48898685D01*
X118175368Y-48974632D01*
X118251315Y-49025378D01*
X118318288Y-49038700D01*
X118318289Y-49038700D01*
X118681711Y-49038700D01*
X118681712Y-49038700D01*
X118748685Y-49025378D01*
X118824632Y-48974632D01*
X118875378Y-48898685D01*
X118888700Y-48831712D01*
X118888700Y-48636559D01*
X118907913Y-48577428D01*
X118958213Y-48540883D01*
X118989422Y-48535960D01*
X119263020Y-48536315D01*
X119322122Y-48555604D01*
X119334020Y-48565779D01*
X119431835Y-48663594D01*
X119460061Y-48718992D01*
X119461300Y-48734729D01*
X119461300Y-48831711D01*
X119474621Y-48898684D01*
X119474622Y-48898685D01*
X119525368Y-48974632D01*
X119601315Y-49025378D01*
X119668288Y-49038700D01*
X119668289Y-49038700D01*
X120031711Y-49038700D01*
X120031712Y-49038700D01*
X120098685Y-49025378D01*
X120174632Y-48974632D01*
X120225378Y-48898685D01*
X120238700Y-48831712D01*
X120238700Y-48638312D01*
X120257913Y-48579181D01*
X120308213Y-48542636D01*
X120339421Y-48537713D01*
X120614775Y-48538071D01*
X120673878Y-48557360D01*
X120685776Y-48567535D01*
X120781835Y-48663594D01*
X120810061Y-48718992D01*
X120811300Y-48734729D01*
X120811300Y-48831711D01*
X120824621Y-48898684D01*
X120824622Y-48898685D01*
X120875368Y-48974632D01*
X120951315Y-49025378D01*
X121018288Y-49038700D01*
X121018289Y-49038700D01*
X121381711Y-49038700D01*
X121381712Y-49038700D01*
X121448685Y-49025378D01*
X121524632Y-48974632D01*
X121575378Y-48898685D01*
X121588700Y-48831712D01*
X121588700Y-48640065D01*
X121607913Y-48580934D01*
X121658213Y-48544389D01*
X121689419Y-48539466D01*
X121966532Y-48539826D01*
X122025633Y-48559115D01*
X122037531Y-48569290D01*
X122131835Y-48663594D01*
X122160061Y-48718992D01*
X122161300Y-48734729D01*
X122161300Y-48831711D01*
X122174621Y-48898684D01*
X122174622Y-48898685D01*
X122225368Y-48974632D01*
X122301315Y-49025378D01*
X122368288Y-49038700D01*
X122368289Y-49038700D01*
X122731711Y-49038700D01*
X122731712Y-49038700D01*
X122798685Y-49025378D01*
X122874632Y-48974632D01*
X122925378Y-48898685D01*
X122938700Y-48831712D01*
X122938700Y-48641819D01*
X122957913Y-48582688D01*
X123008213Y-48546143D01*
X123039424Y-48541220D01*
X123318286Y-48541582D01*
X123377389Y-48560871D01*
X123389287Y-48571046D01*
X123481835Y-48663594D01*
X123510061Y-48718992D01*
X123511300Y-48734729D01*
X123511300Y-48831711D01*
X123524621Y-48898684D01*
X123524622Y-48898685D01*
X123575368Y-48974632D01*
X123651315Y-49025378D01*
X123718288Y-49038700D01*
X123718289Y-49038700D01*
X124081711Y-49038700D01*
X124081712Y-49038700D01*
X124148685Y-49025378D01*
X124224632Y-48974632D01*
X124275378Y-48898685D01*
X124288700Y-48831712D01*
X124288700Y-48643572D01*
X124307913Y-48584441D01*
X124358213Y-48547896D01*
X124389422Y-48542973D01*
X126859631Y-48546181D01*
X126918733Y-48565470D01*
X126955213Y-48615817D01*
X126959611Y-48636916D01*
X126961546Y-48656558D01*
X126961547Y-48656564D01*
X127021795Y-48855179D01*
X127021798Y-48855186D01*
X127119637Y-49038230D01*
X127119642Y-49038237D01*
X127251316Y-49198682D01*
X127251317Y-49198683D01*
X127411762Y-49330357D01*
X127411769Y-49330362D01*
X127594813Y-49428201D01*
X127594820Y-49428204D01*
X127726686Y-49468204D01*
X127793439Y-49488453D01*
X128000000Y-49508798D01*
X128206561Y-49488453D01*
X128305872Y-49458327D01*
X128405179Y-49428204D01*
X128405186Y-49428201D01*
X128588230Y-49330362D01*
X128588231Y-49330360D01*
X128588237Y-49330358D01*
X128748683Y-49198683D01*
X128880358Y-49038237D01*
X128887232Y-49025378D01*
X128978201Y-48855186D01*
X128978204Y-48855179D01*
X129038451Y-48656568D01*
X129038452Y-48656564D01*
X129038451Y-48656564D01*
X129038453Y-48656561D01*
X129040096Y-48639879D01*
X129065011Y-48582919D01*
X129118651Y-48551479D01*
X129140330Y-48549143D01*
X129699532Y-48549869D01*
X129758637Y-48569159D01*
X129795117Y-48619506D01*
X129800000Y-48650469D01*
X129800000Y-52248900D01*
X129780787Y-52308031D01*
X129730487Y-52344576D01*
X129699400Y-52349500D01*
X58639287Y-52349500D01*
X58580156Y-52330287D01*
X58543611Y-52279987D01*
X58543611Y-52217813D01*
X58568150Y-52177767D01*
X58655671Y-52090247D01*
X58667545Y-52066943D01*
X58697258Y-52008629D01*
X58741221Y-51964665D01*
X58786893Y-51953700D01*
X59016885Y-51953700D01*
X59076016Y-51972913D01*
X59092910Y-51988417D01*
X59099835Y-51996409D01*
X59209588Y-52066943D01*
X59334768Y-52103700D01*
X59334769Y-52103700D01*
X59465231Y-52103700D01*
X59465232Y-52103700D01*
X59590412Y-52066943D01*
X59700165Y-51996409D01*
X59785601Y-51897811D01*
X59839798Y-51779136D01*
X59858365Y-51650000D01*
X59839798Y-51520864D01*
X59785601Y-51402189D01*
X59700165Y-51303591D01*
X59590412Y-51233057D01*
X59465232Y-51196300D01*
X59334768Y-51196300D01*
X59288942Y-51209756D01*
X59209587Y-51233057D01*
X59118850Y-51291371D01*
X59099835Y-51303591D01*
X59092911Y-51311580D01*
X59039669Y-51343686D01*
X59016885Y-51346300D01*
X58786893Y-51346300D01*
X58727762Y-51327087D01*
X58697258Y-51291371D01*
X58655673Y-51209756D01*
X58655672Y-51209755D01*
X58655671Y-51209753D01*
X58565247Y-51119329D01*
X58565244Y-51119327D01*
X58565243Y-51119326D01*
X58565244Y-51119326D01*
X58451308Y-51061274D01*
X58451303Y-51061272D01*
X58356774Y-51046300D01*
X58356770Y-51046300D01*
X57743230Y-51046300D01*
X57743225Y-51046300D01*
X57648696Y-51061272D01*
X57648691Y-51061274D01*
X57534756Y-51119326D01*
X57444326Y-51209756D01*
X57386274Y-51323691D01*
X57386272Y-51323696D01*
X57371300Y-51418225D01*
X57371300Y-51881774D01*
X57386272Y-51976303D01*
X57386274Y-51976308D01*
X57444326Y-52090243D01*
X57444327Y-52090244D01*
X57444329Y-52090247D01*
X57531849Y-52177767D01*
X57560074Y-52233163D01*
X57550348Y-52294571D01*
X57506384Y-52338535D01*
X57460713Y-52349500D01*
X52900600Y-52349500D01*
X52841469Y-52330287D01*
X52804924Y-52279987D01*
X52800000Y-52248900D01*
X52800000Y-48550730D01*
X52819213Y-48491599D01*
X52869513Y-48455054D01*
X52900725Y-48450130D01*
X53446301Y-48450839D01*
G37*
%TD.AperFunction*%
%TD*%
M02*
