M48
; DRILL file {KiCad 8.0.8} date 2025-02-16T19:09:15-0500
; FORMAT={-:-/ absolute / inch / decimal}
; #@! TF.CreationDate,2025-02-16T19:09:15-05:00
; #@! TF.GenerationSoftware,Kicad,Pcbnew,8.0.8
; #@! TF.FileFunction,Plated,1,2,PTH
FMAT,2
INCH
; #@! TA.AperFunction,Plated,PTH,ViaDrill
T1C0.0150
; #@! TA.AperFunction,Plated,PTH,ComponentDrill
T2C0.0394
%
G90
G05
T1
X2.2835Y-1.7815
X2.3386Y-2.0335
X2.3835Y-1.7815
X2.3906Y-2.0295
X2.4835Y-1.7815
X2.4906Y-2.0295
X2.5835Y-1.7815
X2.5906Y-2.0295
X2.6835Y-1.7815
X2.6906Y-2.0295
X2.7835Y-1.7815
X2.7906Y-2.0295
X2.8835Y-1.7815
X2.8906Y-2.0295
X2.9835Y-1.7815
X2.9906Y-2.0295
X3.0835Y-1.7815
X3.0906Y-2.0295
X3.1835Y-1.7815
X3.1906Y-2.0295
X3.2835Y-1.7815
X3.2906Y-2.0295
X3.3835Y-1.7815
X3.3906Y-2.0295
X3.4835Y-1.7815
X3.4906Y-2.0295
X3.5835Y-1.7815
X3.5906Y-2.0295
X3.6835Y-1.7815
X3.6906Y-2.0295
X3.7835Y-1.7815
X3.7906Y-2.0295
X3.8835Y-1.7815
X3.8906Y-2.0295
X3.9835Y-1.7815
X3.9906Y-2.0295
X4.0835Y-1.7815
X4.0906Y-2.0295
X4.1835Y-1.7815
X4.1839Y-1.7815
X4.1906Y-2.0295
X4.1909Y-2.0295
X4.2839Y-1.7815
X4.2909Y-2.0295
X4.3839Y-1.7815
X4.3909Y-2.0295
X4.4839Y-1.7815
X4.4909Y-2.0295
X4.5839Y-1.7815
X4.5909Y-2.0295
X4.6839Y-1.7815
X4.6909Y-2.0295
X4.7839Y-1.7815
X4.7909Y-2.0295
X4.8839Y-1.7815
X4.8909Y-2.0295
T2
X2.1496Y-1.8091
X2.1496Y-1.9091
X2.1496Y-2.0091
X5.0394Y-1.8075
X5.0394Y-1.9075
X5.0394Y-2.0075
M30
