%TF.GenerationSoftware,KiCad,Pcbnew,8.0.8*%
%TF.CreationDate,2025-02-16T19:09:12-05:00*%
%TF.ProjectId,EC10-Test-PCB,45433130-2d54-4657-9374-2d5043422e6b,rev?*%
%TF.SameCoordinates,Original*%
%TF.FileFunction,Paste,Top*%
%TF.FilePolarity,Positive*%
%FSLAX46Y46*%
G04 Gerber Fmt 4.6, Leading zero omitted, Abs format (unit mm)*
G04 Created by KiCad (PCBNEW 8.0.8) date 2025-02-16 19:09:12*
%MOMM*%
%LPD*%
G01*
G04 APERTURE LIST*
G04 Aperture macros list*
%AMRoundRect*
0 Rectangle with rounded corners*
0 $1 Rounding radius*
0 $2 $3 $4 $5 $6 $7 $8 $9 X,Y pos of 4 corners*
0 Add a 4 corners polygon primitive as box body*
4,1,4,$2,$3,$4,$5,$6,$7,$8,$9,$2,$3,0*
0 Add four circle primitives for the rounded corners*
1,1,$1+$1,$2,$3*
1,1,$1+$1,$4,$5*
1,1,$1+$1,$6,$7*
1,1,$1+$1,$8,$9*
0 Add four rect primitives between the rounded corners*
20,1,$1+$1,$2,$3,$4,$5,0*
20,1,$1+$1,$4,$5,$6,$7,0*
20,1,$1+$1,$6,$7,$8,$9,0*
20,1,$1+$1,$8,$9,$2,$3,0*%
G04 Aperture macros list end*
%ADD10RoundRect,0.025900X-0.159100X-0.159100X0.159100X-0.159100X0.159100X0.159100X-0.159100X0.159100X0*%
%ADD11RoundRect,0.200000X-0.275000X0.200000X-0.275000X-0.200000X0.275000X-0.200000X0.275000X0.200000X0*%
G04 APERTURE END LIST*
D10*
%TO.C,D13*%
X74620000Y-47980000D03*
X74620000Y-48650000D03*
X73950000Y-48650000D03*
X73950000Y-47980000D03*
%TD*%
%TO.C,D11*%
X71920000Y-47980000D03*
X71920000Y-48650000D03*
X71250000Y-48650000D03*
X71250000Y-47980000D03*
%TD*%
%TO.C,D28*%
X94870000Y-47980000D03*
X94870000Y-48650000D03*
X94200000Y-48650000D03*
X94200000Y-47980000D03*
%TD*%
%TO.C,D1*%
X58420000Y-47980000D03*
X58420000Y-48650000D03*
X57750000Y-48650000D03*
X57750000Y-47980000D03*
%TD*%
%TO.C,D32*%
X100270000Y-47980000D03*
X100270000Y-48650000D03*
X99600000Y-48650000D03*
X99600000Y-47980000D03*
%TD*%
D11*
%TO.C,R1*%
X58050000Y-51650000D03*
X58050000Y-50000000D03*
%TD*%
D10*
%TO.C,D26*%
X92170000Y-47980000D03*
X92170000Y-48650000D03*
X91500000Y-48650000D03*
X91500000Y-47980000D03*
%TD*%
%TO.C,D24*%
X89470000Y-47980000D03*
X89470000Y-48650000D03*
X88800000Y-48650000D03*
X88800000Y-47980000D03*
%TD*%
%TO.C,D44*%
X116470000Y-47980000D03*
X116470000Y-48650000D03*
X115800000Y-48650000D03*
X115800000Y-47980000D03*
%TD*%
%TO.C,D49*%
X123220000Y-47980000D03*
X123220000Y-48650000D03*
X122550000Y-48650000D03*
X122550000Y-47980000D03*
%TD*%
%TO.C,D43*%
X115120000Y-47980000D03*
X115120000Y-48650000D03*
X114450000Y-48650000D03*
X114450000Y-47980000D03*
%TD*%
%TO.C,D30*%
X97570000Y-47980000D03*
X97570000Y-48650000D03*
X96900000Y-48650000D03*
X96900000Y-47980000D03*
%TD*%
%TO.C,D15*%
X77320000Y-47980000D03*
X77320000Y-48650000D03*
X76650000Y-48650000D03*
X76650000Y-47980000D03*
%TD*%
%TO.C,D5*%
X63820000Y-47980000D03*
X63820000Y-48650000D03*
X63150000Y-48650000D03*
X63150000Y-47980000D03*
%TD*%
%TO.C,D50*%
X124570000Y-47980000D03*
X124570000Y-48650000D03*
X123900000Y-48650000D03*
X123900000Y-47980000D03*
%TD*%
%TO.C,D45*%
X117820000Y-47980000D03*
X117820000Y-48650000D03*
X117150000Y-48650000D03*
X117150000Y-47980000D03*
%TD*%
%TO.C,D37*%
X107020000Y-47980000D03*
X107020000Y-48650000D03*
X106350000Y-48650000D03*
X106350000Y-47980000D03*
%TD*%
%TO.C,D8*%
X67870000Y-47980000D03*
X67870000Y-48650000D03*
X67200000Y-48650000D03*
X67200000Y-47980000D03*
%TD*%
%TO.C,D4*%
X62470000Y-47980000D03*
X62470000Y-48650000D03*
X61800000Y-48650000D03*
X61800000Y-47980000D03*
%TD*%
%TO.C,D21*%
X85420000Y-47980000D03*
X85420000Y-48650000D03*
X84750000Y-48650000D03*
X84750000Y-47980000D03*
%TD*%
%TO.C,D33*%
X101620000Y-47980000D03*
X101620000Y-48650000D03*
X100950000Y-48650000D03*
X100950000Y-47980000D03*
%TD*%
%TO.C,D31*%
X98920000Y-47980000D03*
X98920000Y-48650000D03*
X98250000Y-48650000D03*
X98250000Y-47980000D03*
%TD*%
%TO.C,D42*%
X113770000Y-47980000D03*
X113770000Y-48650000D03*
X113100000Y-48650000D03*
X113100000Y-47980000D03*
%TD*%
%TO.C,D47*%
X120520000Y-47980000D03*
X120520000Y-48650000D03*
X119850000Y-48650000D03*
X119850000Y-47980000D03*
%TD*%
%TO.C,D36*%
X105670000Y-47980000D03*
X105670000Y-48650000D03*
X105000000Y-48650000D03*
X105000000Y-47980000D03*
%TD*%
%TO.C,D20*%
X84070000Y-47980000D03*
X84070000Y-48650000D03*
X83400000Y-48650000D03*
X83400000Y-47980000D03*
%TD*%
%TO.C,D39*%
X109720000Y-47980000D03*
X109720000Y-48650000D03*
X109050000Y-48650000D03*
X109050000Y-47980000D03*
%TD*%
%TO.C,D22*%
X86770000Y-47980000D03*
X86770000Y-48650000D03*
X86100000Y-48650000D03*
X86100000Y-47980000D03*
%TD*%
%TO.C,D12*%
X73270000Y-47980000D03*
X73270000Y-48650000D03*
X72600000Y-48650000D03*
X72600000Y-47980000D03*
%TD*%
%TO.C,D25*%
X90820000Y-47980000D03*
X90820000Y-48650000D03*
X90150000Y-48650000D03*
X90150000Y-47980000D03*
%TD*%
%TO.C,D27*%
X93520000Y-47980000D03*
X93520000Y-48650000D03*
X92850000Y-48650000D03*
X92850000Y-47980000D03*
%TD*%
%TO.C,D35*%
X104320000Y-47980000D03*
X104320000Y-48650000D03*
X103650000Y-48650000D03*
X103650000Y-47980000D03*
%TD*%
%TO.C,D38*%
X108370000Y-47980000D03*
X108370000Y-48650000D03*
X107700000Y-48650000D03*
X107700000Y-47980000D03*
%TD*%
%TO.C,D14*%
X75970000Y-47980000D03*
X75970000Y-48650000D03*
X75300000Y-48650000D03*
X75300000Y-47980000D03*
%TD*%
%TO.C,D34*%
X102970000Y-47980000D03*
X102970000Y-48650000D03*
X102300000Y-48650000D03*
X102300000Y-47980000D03*
%TD*%
%TO.C,D16*%
X78670000Y-47980000D03*
X78670000Y-48650000D03*
X78000000Y-48650000D03*
X78000000Y-47980000D03*
%TD*%
%TO.C,D29*%
X96220000Y-47980000D03*
X96220000Y-48650000D03*
X95550000Y-48650000D03*
X95550000Y-47980000D03*
%TD*%
%TO.C,D41*%
X112420000Y-47980000D03*
X112420000Y-48650000D03*
X111750000Y-48650000D03*
X111750000Y-47980000D03*
%TD*%
%TO.C,D19*%
X82720000Y-47980000D03*
X82720000Y-48650000D03*
X82050000Y-48650000D03*
X82050000Y-47980000D03*
%TD*%
%TO.C,D46*%
X119170000Y-47980000D03*
X119170000Y-48650000D03*
X118500000Y-48650000D03*
X118500000Y-47980000D03*
%TD*%
%TO.C,D6*%
X65170000Y-47980000D03*
X65170000Y-48650000D03*
X64500000Y-48650000D03*
X64500000Y-47980000D03*
%TD*%
%TO.C,D10*%
X70570000Y-47980000D03*
X70570000Y-48650000D03*
X69900000Y-48650000D03*
X69900000Y-47980000D03*
%TD*%
%TO.C,D40*%
X111070000Y-47980000D03*
X111070000Y-48650000D03*
X110400000Y-48650000D03*
X110400000Y-47980000D03*
%TD*%
%TO.C,D3*%
X61120000Y-47980000D03*
X61120000Y-48650000D03*
X60450000Y-48650000D03*
X60450000Y-47980000D03*
%TD*%
%TO.C,D18*%
X81370000Y-47980000D03*
X81370000Y-48650000D03*
X80700000Y-48650000D03*
X80700000Y-47980000D03*
%TD*%
%TO.C,D23*%
X88120000Y-47980000D03*
X88120000Y-48650000D03*
X87450000Y-48650000D03*
X87450000Y-47980000D03*
%TD*%
%TO.C,D9*%
X69220000Y-47980000D03*
X69220000Y-48650000D03*
X68550000Y-48650000D03*
X68550000Y-47980000D03*
%TD*%
%TO.C,D17*%
X80020000Y-47980000D03*
X80020000Y-48650000D03*
X79350000Y-48650000D03*
X79350000Y-47980000D03*
%TD*%
%TO.C,D7*%
X66520000Y-47980000D03*
X66520000Y-48650000D03*
X65850000Y-48650000D03*
X65850000Y-47980000D03*
%TD*%
%TO.C,D48*%
X121870000Y-47980000D03*
X121870000Y-48650000D03*
X121200000Y-48650000D03*
X121200000Y-47980000D03*
%TD*%
%TO.C,D2*%
X59770000Y-47980000D03*
X59770000Y-48650000D03*
X59100000Y-48650000D03*
X59100000Y-47980000D03*
%TD*%
M02*
