%TF.GenerationSoftware,KiCad,Pcbnew,8.0.8*%
%TF.CreationDate,2025-02-16T19:09:12-05:00*%
%TF.ProjectId,EC10-Test-PCB,45433130-2d54-4657-9374-2d5043422e6b,rev?*%
%TF.SameCoordinates,Original*%
%TF.FileFunction,Legend,Top*%
%TF.FilePolarity,Positive*%
%FSLAX46Y46*%
G04 Gerber Fmt 4.6, Leading zero omitted, Abs format (unit mm)*
G04 Created by KiCad (PCBNEW 8.0.8) date 2025-02-16 19:09:12*
%MOMM*%
%LPD*%
G01*
G04 APERTURE LIST*
%ADD10C,0.101600*%
%ADD11C,0.150000*%
%ADD12C,0.100000*%
%ADD13C,0.030000*%
%ADD14C,0.120000*%
G04 APERTURE END LIST*
D10*
X124129699Y-46824546D02*
X123887794Y-46824546D01*
X123887794Y-46824546D02*
X123863603Y-47066451D01*
X123863603Y-47066451D02*
X123887794Y-47042260D01*
X123887794Y-47042260D02*
X123936175Y-47018070D01*
X123936175Y-47018070D02*
X124057127Y-47018070D01*
X124057127Y-47018070D02*
X124105508Y-47042260D01*
X124105508Y-47042260D02*
X124129699Y-47066451D01*
X124129699Y-47066451D02*
X124153889Y-47114832D01*
X124153889Y-47114832D02*
X124153889Y-47235784D01*
X124153889Y-47235784D02*
X124129699Y-47284165D01*
X124129699Y-47284165D02*
X124105508Y-47308356D01*
X124105508Y-47308356D02*
X124057127Y-47332546D01*
X124057127Y-47332546D02*
X123936175Y-47332546D01*
X123936175Y-47332546D02*
X123887794Y-47308356D01*
X123887794Y-47308356D02*
X123863603Y-47284165D01*
X124468366Y-46824546D02*
X124516747Y-46824546D01*
X124516747Y-46824546D02*
X124565128Y-46848736D01*
X124565128Y-46848736D02*
X124589318Y-46872927D01*
X124589318Y-46872927D02*
X124613509Y-46921308D01*
X124613509Y-46921308D02*
X124637699Y-47018070D01*
X124637699Y-47018070D02*
X124637699Y-47139022D01*
X124637699Y-47139022D02*
X124613509Y-47235784D01*
X124613509Y-47235784D02*
X124589318Y-47284165D01*
X124589318Y-47284165D02*
X124565128Y-47308356D01*
X124565128Y-47308356D02*
X124516747Y-47332546D01*
X124516747Y-47332546D02*
X124468366Y-47332546D01*
X124468366Y-47332546D02*
X124419985Y-47308356D01*
X124419985Y-47308356D02*
X124395794Y-47284165D01*
X124395794Y-47284165D02*
X124371604Y-47235784D01*
X124371604Y-47235784D02*
X124347413Y-47139022D01*
X124347413Y-47139022D02*
X124347413Y-47018070D01*
X124347413Y-47018070D02*
X124371604Y-46921308D01*
X124371604Y-46921308D02*
X124395794Y-46872927D01*
X124395794Y-46872927D02*
X124419985Y-46848736D01*
X124419985Y-46848736D02*
X124468366Y-46824546D01*
X58303889Y-47382546D02*
X58013603Y-47382546D01*
X58158746Y-47382546D02*
X58158746Y-46874546D01*
X58158746Y-46874546D02*
X58110365Y-46947117D01*
X58110365Y-46947117D02*
X58061984Y-46995498D01*
X58061984Y-46995498D02*
X58013603Y-47019689D01*
D11*
X122262969Y-49769819D02*
X121786779Y-49769819D01*
X121786779Y-49769819D02*
X121739160Y-50246009D01*
X121739160Y-50246009D02*
X121786779Y-50198390D01*
X121786779Y-50198390D02*
X121882017Y-50150771D01*
X121882017Y-50150771D02*
X122120112Y-50150771D01*
X122120112Y-50150771D02*
X122215350Y-50198390D01*
X122215350Y-50198390D02*
X122262969Y-50246009D01*
X122262969Y-50246009D02*
X122310588Y-50341247D01*
X122310588Y-50341247D02*
X122310588Y-50579342D01*
X122310588Y-50579342D02*
X122262969Y-50674580D01*
X122262969Y-50674580D02*
X122215350Y-50722200D01*
X122215350Y-50722200D02*
X122120112Y-50769819D01*
X122120112Y-50769819D02*
X121882017Y-50769819D01*
X121882017Y-50769819D02*
X121786779Y-50722200D01*
X121786779Y-50722200D02*
X121739160Y-50674580D01*
X122929636Y-49769819D02*
X123024874Y-49769819D01*
X123024874Y-49769819D02*
X123120112Y-49817438D01*
X123120112Y-49817438D02*
X123167731Y-49865057D01*
X123167731Y-49865057D02*
X123215350Y-49960295D01*
X123215350Y-49960295D02*
X123262969Y-50150771D01*
X123262969Y-50150771D02*
X123262969Y-50388866D01*
X123262969Y-50388866D02*
X123215350Y-50579342D01*
X123215350Y-50579342D02*
X123167731Y-50674580D01*
X123167731Y-50674580D02*
X123120112Y-50722200D01*
X123120112Y-50722200D02*
X123024874Y-50769819D01*
X123024874Y-50769819D02*
X122929636Y-50769819D01*
X122929636Y-50769819D02*
X122834398Y-50722200D01*
X122834398Y-50722200D02*
X122786779Y-50674580D01*
X122786779Y-50674580D02*
X122739160Y-50579342D01*
X122739160Y-50579342D02*
X122691541Y-50388866D01*
X122691541Y-50388866D02*
X122691541Y-50150771D01*
X122691541Y-50150771D02*
X122739160Y-49960295D01*
X122739160Y-49960295D02*
X122786779Y-49865057D01*
X122786779Y-49865057D02*
X122834398Y-49817438D01*
X122834398Y-49817438D02*
X122929636Y-49769819D01*
X123596303Y-50769819D02*
X124120112Y-50103152D01*
X123596303Y-50103152D02*
X124120112Y-50769819D01*
X62058207Y-51019819D02*
X61724874Y-50543628D01*
X61486779Y-51019819D02*
X61486779Y-50019819D01*
X61486779Y-50019819D02*
X61867731Y-50019819D01*
X61867731Y-50019819D02*
X61962969Y-50067438D01*
X61962969Y-50067438D02*
X62010588Y-50115057D01*
X62010588Y-50115057D02*
X62058207Y-50210295D01*
X62058207Y-50210295D02*
X62058207Y-50353152D01*
X62058207Y-50353152D02*
X62010588Y-50448390D01*
X62010588Y-50448390D02*
X61962969Y-50496009D01*
X61962969Y-50496009D02*
X61867731Y-50543628D01*
X61867731Y-50543628D02*
X61486779Y-50543628D01*
X62867731Y-50972200D02*
X62772493Y-51019819D01*
X62772493Y-51019819D02*
X62582017Y-51019819D01*
X62582017Y-51019819D02*
X62486779Y-50972200D01*
X62486779Y-50972200D02*
X62439160Y-50876961D01*
X62439160Y-50876961D02*
X62439160Y-50496009D01*
X62439160Y-50496009D02*
X62486779Y-50400771D01*
X62486779Y-50400771D02*
X62582017Y-50353152D01*
X62582017Y-50353152D02*
X62772493Y-50353152D01*
X62772493Y-50353152D02*
X62867731Y-50400771D01*
X62867731Y-50400771D02*
X62915350Y-50496009D01*
X62915350Y-50496009D02*
X62915350Y-50591247D01*
X62915350Y-50591247D02*
X62439160Y-50686485D01*
X63248684Y-50353152D02*
X63486779Y-51019819D01*
X63486779Y-51019819D02*
X63724874Y-50353152D01*
X64296303Y-50019819D02*
X64391541Y-50019819D01*
X64391541Y-50019819D02*
X64486779Y-50067438D01*
X64486779Y-50067438D02*
X64534398Y-50115057D01*
X64534398Y-50115057D02*
X64582017Y-50210295D01*
X64582017Y-50210295D02*
X64629636Y-50400771D01*
X64629636Y-50400771D02*
X64629636Y-50638866D01*
X64629636Y-50638866D02*
X64582017Y-50829342D01*
X64582017Y-50829342D02*
X64534398Y-50924580D01*
X64534398Y-50924580D02*
X64486779Y-50972200D01*
X64486779Y-50972200D02*
X64391541Y-51019819D01*
X64391541Y-51019819D02*
X64296303Y-51019819D01*
X64296303Y-51019819D02*
X64201065Y-50972200D01*
X64201065Y-50972200D02*
X64153446Y-50924580D01*
X64153446Y-50924580D02*
X64105827Y-50829342D01*
X64105827Y-50829342D02*
X64058208Y-50638866D01*
X64058208Y-50638866D02*
X64058208Y-50400771D01*
X64058208Y-50400771D02*
X64105827Y-50210295D01*
X64105827Y-50210295D02*
X64153446Y-50115057D01*
X64153446Y-50115057D02*
X64201065Y-50067438D01*
X64201065Y-50067438D02*
X64296303Y-50019819D01*
X58565350Y-45669819D02*
X58374874Y-45669819D01*
X58374874Y-45669819D02*
X58279636Y-45717438D01*
X58279636Y-45717438D02*
X58232017Y-45765057D01*
X58232017Y-45765057D02*
X58136779Y-45907914D01*
X58136779Y-45907914D02*
X58089160Y-46098390D01*
X58089160Y-46098390D02*
X58089160Y-46479342D01*
X58089160Y-46479342D02*
X58136779Y-46574580D01*
X58136779Y-46574580D02*
X58184398Y-46622200D01*
X58184398Y-46622200D02*
X58279636Y-46669819D01*
X58279636Y-46669819D02*
X58470112Y-46669819D01*
X58470112Y-46669819D02*
X58565350Y-46622200D01*
X58565350Y-46622200D02*
X58612969Y-46574580D01*
X58612969Y-46574580D02*
X58660588Y-46479342D01*
X58660588Y-46479342D02*
X58660588Y-46241247D01*
X58660588Y-46241247D02*
X58612969Y-46146009D01*
X58612969Y-46146009D02*
X58565350Y-46098390D01*
X58565350Y-46098390D02*
X58470112Y-46050771D01*
X58470112Y-46050771D02*
X58279636Y-46050771D01*
X58279636Y-46050771D02*
X58184398Y-46098390D01*
X58184398Y-46098390D02*
X58136779Y-46146009D01*
X58136779Y-46146009D02*
X58089160Y-46241247D01*
X59232017Y-46098390D02*
X59136779Y-46050771D01*
X59136779Y-46050771D02*
X59089160Y-46003152D01*
X59089160Y-46003152D02*
X59041541Y-45907914D01*
X59041541Y-45907914D02*
X59041541Y-45860295D01*
X59041541Y-45860295D02*
X59089160Y-45765057D01*
X59089160Y-45765057D02*
X59136779Y-45717438D01*
X59136779Y-45717438D02*
X59232017Y-45669819D01*
X59232017Y-45669819D02*
X59422493Y-45669819D01*
X59422493Y-45669819D02*
X59517731Y-45717438D01*
X59517731Y-45717438D02*
X59565350Y-45765057D01*
X59565350Y-45765057D02*
X59612969Y-45860295D01*
X59612969Y-45860295D02*
X59612969Y-45907914D01*
X59612969Y-45907914D02*
X59565350Y-46003152D01*
X59565350Y-46003152D02*
X59517731Y-46050771D01*
X59517731Y-46050771D02*
X59422493Y-46098390D01*
X59422493Y-46098390D02*
X59232017Y-46098390D01*
X59232017Y-46098390D02*
X59136779Y-46146009D01*
X59136779Y-46146009D02*
X59089160Y-46193628D01*
X59089160Y-46193628D02*
X59041541Y-46288866D01*
X59041541Y-46288866D02*
X59041541Y-46479342D01*
X59041541Y-46479342D02*
X59089160Y-46574580D01*
X59089160Y-46574580D02*
X59136779Y-46622200D01*
X59136779Y-46622200D02*
X59232017Y-46669819D01*
X59232017Y-46669819D02*
X59422493Y-46669819D01*
X59422493Y-46669819D02*
X59517731Y-46622200D01*
X59517731Y-46622200D02*
X59565350Y-46574580D01*
X59565350Y-46574580D02*
X59612969Y-46479342D01*
X59612969Y-46479342D02*
X59612969Y-46288866D01*
X59612969Y-46288866D02*
X59565350Y-46193628D01*
X59565350Y-46193628D02*
X59517731Y-46146009D01*
X59517731Y-46146009D02*
X59422493Y-46098390D01*
X60565350Y-46669819D02*
X59993922Y-46669819D01*
X60279636Y-46669819D02*
X60279636Y-45669819D01*
X60279636Y-45669819D02*
X60184398Y-45812676D01*
X60184398Y-45812676D02*
X60089160Y-45907914D01*
X60089160Y-45907914D02*
X59993922Y-45955533D01*
X60946303Y-45765057D02*
X60993922Y-45717438D01*
X60993922Y-45717438D02*
X61089160Y-45669819D01*
X61089160Y-45669819D02*
X61327255Y-45669819D01*
X61327255Y-45669819D02*
X61422493Y-45717438D01*
X61422493Y-45717438D02*
X61470112Y-45765057D01*
X61470112Y-45765057D02*
X61517731Y-45860295D01*
X61517731Y-45860295D02*
X61517731Y-45955533D01*
X61517731Y-45955533D02*
X61470112Y-46098390D01*
X61470112Y-46098390D02*
X60898684Y-46669819D01*
X60898684Y-46669819D02*
X61517731Y-46669819D01*
X61946303Y-46288866D02*
X62708208Y-46288866D01*
X63184398Y-46146009D02*
X63517731Y-46146009D01*
X63660588Y-46669819D02*
X63184398Y-46669819D01*
X63184398Y-46669819D02*
X63184398Y-45669819D01*
X63184398Y-45669819D02*
X63660588Y-45669819D01*
X64660588Y-46574580D02*
X64612969Y-46622200D01*
X64612969Y-46622200D02*
X64470112Y-46669819D01*
X64470112Y-46669819D02*
X64374874Y-46669819D01*
X64374874Y-46669819D02*
X64232017Y-46622200D01*
X64232017Y-46622200D02*
X64136779Y-46526961D01*
X64136779Y-46526961D02*
X64089160Y-46431723D01*
X64089160Y-46431723D02*
X64041541Y-46241247D01*
X64041541Y-46241247D02*
X64041541Y-46098390D01*
X64041541Y-46098390D02*
X64089160Y-45907914D01*
X64089160Y-45907914D02*
X64136779Y-45812676D01*
X64136779Y-45812676D02*
X64232017Y-45717438D01*
X64232017Y-45717438D02*
X64374874Y-45669819D01*
X64374874Y-45669819D02*
X64470112Y-45669819D01*
X64470112Y-45669819D02*
X64612969Y-45717438D01*
X64612969Y-45717438D02*
X64660588Y-45765057D01*
X65612969Y-46669819D02*
X65041541Y-46669819D01*
X65327255Y-46669819D02*
X65327255Y-45669819D01*
X65327255Y-45669819D02*
X65232017Y-45812676D01*
X65232017Y-45812676D02*
X65136779Y-45907914D01*
X65136779Y-45907914D02*
X65041541Y-45955533D01*
X66232017Y-45669819D02*
X66327255Y-45669819D01*
X66327255Y-45669819D02*
X66422493Y-45717438D01*
X66422493Y-45717438D02*
X66470112Y-45765057D01*
X66470112Y-45765057D02*
X66517731Y-45860295D01*
X66517731Y-45860295D02*
X66565350Y-46050771D01*
X66565350Y-46050771D02*
X66565350Y-46288866D01*
X66565350Y-46288866D02*
X66517731Y-46479342D01*
X66517731Y-46479342D02*
X66470112Y-46574580D01*
X66470112Y-46574580D02*
X66422493Y-46622200D01*
X66422493Y-46622200D02*
X66327255Y-46669819D01*
X66327255Y-46669819D02*
X66232017Y-46669819D01*
X66232017Y-46669819D02*
X66136779Y-46622200D01*
X66136779Y-46622200D02*
X66089160Y-46574580D01*
X66089160Y-46574580D02*
X66041541Y-46479342D01*
X66041541Y-46479342D02*
X65993922Y-46288866D01*
X65993922Y-46288866D02*
X65993922Y-46050771D01*
X65993922Y-46050771D02*
X66041541Y-45860295D01*
X66041541Y-45860295D02*
X66089160Y-45765057D01*
X66089160Y-45765057D02*
X66136779Y-45717438D01*
X66136779Y-45717438D02*
X66232017Y-45669819D01*
X67612970Y-45669819D02*
X68184398Y-45669819D01*
X67898684Y-46669819D02*
X67898684Y-45669819D01*
X68898684Y-46622200D02*
X68803446Y-46669819D01*
X68803446Y-46669819D02*
X68612970Y-46669819D01*
X68612970Y-46669819D02*
X68517732Y-46622200D01*
X68517732Y-46622200D02*
X68470113Y-46526961D01*
X68470113Y-46526961D02*
X68470113Y-46146009D01*
X68470113Y-46146009D02*
X68517732Y-46050771D01*
X68517732Y-46050771D02*
X68612970Y-46003152D01*
X68612970Y-46003152D02*
X68803446Y-46003152D01*
X68803446Y-46003152D02*
X68898684Y-46050771D01*
X68898684Y-46050771D02*
X68946303Y-46146009D01*
X68946303Y-46146009D02*
X68946303Y-46241247D01*
X68946303Y-46241247D02*
X68470113Y-46336485D01*
X69327256Y-46622200D02*
X69422494Y-46669819D01*
X69422494Y-46669819D02*
X69612970Y-46669819D01*
X69612970Y-46669819D02*
X69708208Y-46622200D01*
X69708208Y-46622200D02*
X69755827Y-46526961D01*
X69755827Y-46526961D02*
X69755827Y-46479342D01*
X69755827Y-46479342D02*
X69708208Y-46384104D01*
X69708208Y-46384104D02*
X69612970Y-46336485D01*
X69612970Y-46336485D02*
X69470113Y-46336485D01*
X69470113Y-46336485D02*
X69374875Y-46288866D01*
X69374875Y-46288866D02*
X69327256Y-46193628D01*
X69327256Y-46193628D02*
X69327256Y-46146009D01*
X69327256Y-46146009D02*
X69374875Y-46050771D01*
X69374875Y-46050771D02*
X69470113Y-46003152D01*
X69470113Y-46003152D02*
X69612970Y-46003152D01*
X69612970Y-46003152D02*
X69708208Y-46050771D01*
X70041542Y-46003152D02*
X70422494Y-46003152D01*
X70184399Y-45669819D02*
X70184399Y-46526961D01*
X70184399Y-46526961D02*
X70232018Y-46622200D01*
X70232018Y-46622200D02*
X70327256Y-46669819D01*
X70327256Y-46669819D02*
X70422494Y-46669819D01*
X71851066Y-46146009D02*
X71517733Y-46146009D01*
X71517733Y-46669819D02*
X71517733Y-45669819D01*
X71517733Y-45669819D02*
X71993923Y-45669819D01*
X72374876Y-46669819D02*
X72374876Y-46003152D01*
X72374876Y-45669819D02*
X72327257Y-45717438D01*
X72327257Y-45717438D02*
X72374876Y-45765057D01*
X72374876Y-45765057D02*
X72422495Y-45717438D01*
X72422495Y-45717438D02*
X72374876Y-45669819D01*
X72374876Y-45669819D02*
X72374876Y-45765057D01*
X72755828Y-46669819D02*
X73279637Y-46003152D01*
X72755828Y-46003152D02*
X73279637Y-46669819D01*
X73517733Y-46003152D02*
X73898685Y-46003152D01*
X73660590Y-45669819D02*
X73660590Y-46526961D01*
X73660590Y-46526961D02*
X73708209Y-46622200D01*
X73708209Y-46622200D02*
X73803447Y-46669819D01*
X73803447Y-46669819D02*
X73898685Y-46669819D01*
X74660590Y-46003152D02*
X74660590Y-46669819D01*
X74232019Y-46003152D02*
X74232019Y-46526961D01*
X74232019Y-46526961D02*
X74279638Y-46622200D01*
X74279638Y-46622200D02*
X74374876Y-46669819D01*
X74374876Y-46669819D02*
X74517733Y-46669819D01*
X74517733Y-46669819D02*
X74612971Y-46622200D01*
X74612971Y-46622200D02*
X74660590Y-46574580D01*
X75136781Y-46669819D02*
X75136781Y-46003152D01*
X75136781Y-46193628D02*
X75184400Y-46098390D01*
X75184400Y-46098390D02*
X75232019Y-46050771D01*
X75232019Y-46050771D02*
X75327257Y-46003152D01*
X75327257Y-46003152D02*
X75422495Y-46003152D01*
X76136781Y-46622200D02*
X76041543Y-46669819D01*
X76041543Y-46669819D02*
X75851067Y-46669819D01*
X75851067Y-46669819D02*
X75755829Y-46622200D01*
X75755829Y-46622200D02*
X75708210Y-46526961D01*
X75708210Y-46526961D02*
X75708210Y-46146009D01*
X75708210Y-46146009D02*
X75755829Y-46050771D01*
X75755829Y-46050771D02*
X75851067Y-46003152D01*
X75851067Y-46003152D02*
X76041543Y-46003152D01*
X76041543Y-46003152D02*
X76136781Y-46050771D01*
X76136781Y-46050771D02*
X76184400Y-46146009D01*
X76184400Y-46146009D02*
X76184400Y-46241247D01*
X76184400Y-46241247D02*
X75708210Y-46336485D01*
D12*
X56589106Y-51813258D02*
X56589106Y-51426211D01*
X56782630Y-51619734D02*
X56395582Y-51619734D01*
X56274630Y-50942401D02*
X56274630Y-51184306D01*
X56274630Y-51184306D02*
X56516535Y-51208497D01*
X56516535Y-51208497D02*
X56492344Y-51184306D01*
X56492344Y-51184306D02*
X56468154Y-51135925D01*
X56468154Y-51135925D02*
X56468154Y-51014973D01*
X56468154Y-51014973D02*
X56492344Y-50966592D01*
X56492344Y-50966592D02*
X56516535Y-50942401D01*
X56516535Y-50942401D02*
X56564916Y-50918211D01*
X56564916Y-50918211D02*
X56685868Y-50918211D01*
X56685868Y-50918211D02*
X56734249Y-50942401D01*
X56734249Y-50942401D02*
X56758440Y-50966592D01*
X56758440Y-50966592D02*
X56782630Y-51014973D01*
X56782630Y-51014973D02*
X56782630Y-51135925D01*
X56782630Y-51135925D02*
X56758440Y-51184306D01*
X56758440Y-51184306D02*
X56734249Y-51208497D01*
X56274630Y-50773068D02*
X56782630Y-50603734D01*
X56782630Y-50603734D02*
X56274630Y-50434401D01*
X125498820Y-46197163D02*
X125474630Y-46245544D01*
X125474630Y-46245544D02*
X125474630Y-46318115D01*
X125474630Y-46318115D02*
X125498820Y-46390687D01*
X125498820Y-46390687D02*
X125547201Y-46439068D01*
X125547201Y-46439068D02*
X125595582Y-46463258D01*
X125595582Y-46463258D02*
X125692344Y-46487449D01*
X125692344Y-46487449D02*
X125764916Y-46487449D01*
X125764916Y-46487449D02*
X125861678Y-46463258D01*
X125861678Y-46463258D02*
X125910059Y-46439068D01*
X125910059Y-46439068D02*
X125958440Y-46390687D01*
X125958440Y-46390687D02*
X125982630Y-46318115D01*
X125982630Y-46318115D02*
X125982630Y-46269734D01*
X125982630Y-46269734D02*
X125958440Y-46197163D01*
X125958440Y-46197163D02*
X125934249Y-46172972D01*
X125934249Y-46172972D02*
X125764916Y-46172972D01*
X125764916Y-46172972D02*
X125764916Y-46269734D01*
X125982630Y-45955258D02*
X125474630Y-45955258D01*
X125474630Y-45955258D02*
X125982630Y-45664972D01*
X125982630Y-45664972D02*
X125474630Y-45664972D01*
X125982630Y-45423068D02*
X125474630Y-45423068D01*
X125474630Y-45423068D02*
X125474630Y-45302116D01*
X125474630Y-45302116D02*
X125498820Y-45229544D01*
X125498820Y-45229544D02*
X125547201Y-45181163D01*
X125547201Y-45181163D02*
X125595582Y-45156973D01*
X125595582Y-45156973D02*
X125692344Y-45132782D01*
X125692344Y-45132782D02*
X125764916Y-45132782D01*
X125764916Y-45132782D02*
X125861678Y-45156973D01*
X125861678Y-45156973D02*
X125910059Y-45181163D01*
X125910059Y-45181163D02*
X125958440Y-45229544D01*
X125958440Y-45229544D02*
X125982630Y-45302116D01*
X125982630Y-45302116D02*
X125982630Y-45423068D01*
X125839106Y-51763258D02*
X125839106Y-51376211D01*
X126032630Y-51569734D02*
X125645582Y-51569734D01*
X125524630Y-50892401D02*
X125524630Y-51134306D01*
X125524630Y-51134306D02*
X125766535Y-51158497D01*
X125766535Y-51158497D02*
X125742344Y-51134306D01*
X125742344Y-51134306D02*
X125718154Y-51085925D01*
X125718154Y-51085925D02*
X125718154Y-50964973D01*
X125718154Y-50964973D02*
X125742344Y-50916592D01*
X125742344Y-50916592D02*
X125766535Y-50892401D01*
X125766535Y-50892401D02*
X125814916Y-50868211D01*
X125814916Y-50868211D02*
X125935868Y-50868211D01*
X125935868Y-50868211D02*
X125984249Y-50892401D01*
X125984249Y-50892401D02*
X126008440Y-50916592D01*
X126008440Y-50916592D02*
X126032630Y-50964973D01*
X126032630Y-50964973D02*
X126032630Y-51085925D01*
X126032630Y-51085925D02*
X126008440Y-51134306D01*
X126008440Y-51134306D02*
X125984249Y-51158497D01*
X125524630Y-50723068D02*
X126032630Y-50553734D01*
X126032630Y-50553734D02*
X125524630Y-50384401D01*
X56982630Y-49163258D02*
X56474630Y-49163258D01*
X56474630Y-49163258D02*
X56474630Y-49042306D01*
X56474630Y-49042306D02*
X56498820Y-48969734D01*
X56498820Y-48969734D02*
X56547201Y-48921353D01*
X56547201Y-48921353D02*
X56595582Y-48897163D01*
X56595582Y-48897163D02*
X56692344Y-48872972D01*
X56692344Y-48872972D02*
X56764916Y-48872972D01*
X56764916Y-48872972D02*
X56861678Y-48897163D01*
X56861678Y-48897163D02*
X56910059Y-48921353D01*
X56910059Y-48921353D02*
X56958440Y-48969734D01*
X56958440Y-48969734D02*
X56982630Y-49042306D01*
X56982630Y-49042306D02*
X56982630Y-49163258D01*
X56982630Y-48655258D02*
X56643963Y-48655258D01*
X56474630Y-48655258D02*
X56498820Y-48679449D01*
X56498820Y-48679449D02*
X56523011Y-48655258D01*
X56523011Y-48655258D02*
X56498820Y-48631068D01*
X56498820Y-48631068D02*
X56474630Y-48655258D01*
X56474630Y-48655258D02*
X56523011Y-48655258D01*
X56643963Y-48413353D02*
X56982630Y-48413353D01*
X56692344Y-48413353D02*
X56668154Y-48389163D01*
X56668154Y-48389163D02*
X56643963Y-48340782D01*
X56643963Y-48340782D02*
X56643963Y-48268210D01*
X56643963Y-48268210D02*
X56668154Y-48219829D01*
X56668154Y-48219829D02*
X56716535Y-48195639D01*
X56716535Y-48195639D02*
X56982630Y-48195639D01*
X125932630Y-48963258D02*
X125424630Y-48963258D01*
X125424630Y-48963258D02*
X125424630Y-48842306D01*
X125424630Y-48842306D02*
X125448820Y-48769734D01*
X125448820Y-48769734D02*
X125497201Y-48721353D01*
X125497201Y-48721353D02*
X125545582Y-48697163D01*
X125545582Y-48697163D02*
X125642344Y-48672972D01*
X125642344Y-48672972D02*
X125714916Y-48672972D01*
X125714916Y-48672972D02*
X125811678Y-48697163D01*
X125811678Y-48697163D02*
X125860059Y-48721353D01*
X125860059Y-48721353D02*
X125908440Y-48769734D01*
X125908440Y-48769734D02*
X125932630Y-48842306D01*
X125932630Y-48842306D02*
X125932630Y-48963258D01*
X125932630Y-48382687D02*
X125908440Y-48431068D01*
X125908440Y-48431068D02*
X125884249Y-48455258D01*
X125884249Y-48455258D02*
X125835868Y-48479449D01*
X125835868Y-48479449D02*
X125690725Y-48479449D01*
X125690725Y-48479449D02*
X125642344Y-48455258D01*
X125642344Y-48455258D02*
X125618154Y-48431068D01*
X125618154Y-48431068D02*
X125593963Y-48382687D01*
X125593963Y-48382687D02*
X125593963Y-48310115D01*
X125593963Y-48310115D02*
X125618154Y-48261734D01*
X125618154Y-48261734D02*
X125642344Y-48237544D01*
X125642344Y-48237544D02*
X125690725Y-48213353D01*
X125690725Y-48213353D02*
X125835868Y-48213353D01*
X125835868Y-48213353D02*
X125884249Y-48237544D01*
X125884249Y-48237544D02*
X125908440Y-48261734D01*
X125908440Y-48261734D02*
X125932630Y-48310115D01*
X125932630Y-48310115D02*
X125932630Y-48382687D01*
X125593963Y-47777925D02*
X125932630Y-47777925D01*
X125593963Y-47995639D02*
X125860059Y-47995639D01*
X125860059Y-47995639D02*
X125908440Y-47971449D01*
X125908440Y-47971449D02*
X125932630Y-47923068D01*
X125932630Y-47923068D02*
X125932630Y-47850496D01*
X125932630Y-47850496D02*
X125908440Y-47802115D01*
X125908440Y-47802115D02*
X125884249Y-47777925D01*
X125593963Y-47608592D02*
X125593963Y-47415068D01*
X125424630Y-47536020D02*
X125860059Y-47536020D01*
X125860059Y-47536020D02*
X125908440Y-47511830D01*
X125908440Y-47511830D02*
X125932630Y-47463449D01*
X125932630Y-47463449D02*
X125932630Y-47415068D01*
X56348820Y-46397163D02*
X56324630Y-46445544D01*
X56324630Y-46445544D02*
X56324630Y-46518115D01*
X56324630Y-46518115D02*
X56348820Y-46590687D01*
X56348820Y-46590687D02*
X56397201Y-46639068D01*
X56397201Y-46639068D02*
X56445582Y-46663258D01*
X56445582Y-46663258D02*
X56542344Y-46687449D01*
X56542344Y-46687449D02*
X56614916Y-46687449D01*
X56614916Y-46687449D02*
X56711678Y-46663258D01*
X56711678Y-46663258D02*
X56760059Y-46639068D01*
X56760059Y-46639068D02*
X56808440Y-46590687D01*
X56808440Y-46590687D02*
X56832630Y-46518115D01*
X56832630Y-46518115D02*
X56832630Y-46469734D01*
X56832630Y-46469734D02*
X56808440Y-46397163D01*
X56808440Y-46397163D02*
X56784249Y-46372972D01*
X56784249Y-46372972D02*
X56614916Y-46372972D01*
X56614916Y-46372972D02*
X56614916Y-46469734D01*
X56832630Y-46155258D02*
X56324630Y-46155258D01*
X56324630Y-46155258D02*
X56832630Y-45864972D01*
X56832630Y-45864972D02*
X56324630Y-45864972D01*
X56832630Y-45623068D02*
X56324630Y-45623068D01*
X56324630Y-45623068D02*
X56324630Y-45502116D01*
X56324630Y-45502116D02*
X56348820Y-45429544D01*
X56348820Y-45429544D02*
X56397201Y-45381163D01*
X56397201Y-45381163D02*
X56445582Y-45356973D01*
X56445582Y-45356973D02*
X56542344Y-45332782D01*
X56542344Y-45332782D02*
X56614916Y-45332782D01*
X56614916Y-45332782D02*
X56711678Y-45356973D01*
X56711678Y-45356973D02*
X56760059Y-45381163D01*
X56760059Y-45381163D02*
X56808440Y-45429544D01*
X56808440Y-45429544D02*
X56832630Y-45502116D01*
X56832630Y-45502116D02*
X56832630Y-45623068D01*
D10*
X59709726Y-50909666D02*
X59467821Y-51079000D01*
X59709726Y-51199952D02*
X59201726Y-51199952D01*
X59201726Y-51199952D02*
X59201726Y-51006428D01*
X59201726Y-51006428D02*
X59225916Y-50958047D01*
X59225916Y-50958047D02*
X59250107Y-50933857D01*
X59250107Y-50933857D02*
X59298488Y-50909666D01*
X59298488Y-50909666D02*
X59371059Y-50909666D01*
X59371059Y-50909666D02*
X59419440Y-50933857D01*
X59419440Y-50933857D02*
X59443631Y-50958047D01*
X59443631Y-50958047D02*
X59467821Y-51006428D01*
X59467821Y-51006428D02*
X59467821Y-51199952D01*
X59709726Y-50425857D02*
X59709726Y-50716143D01*
X59709726Y-50571000D02*
X59201726Y-50571000D01*
X59201726Y-50571000D02*
X59274297Y-50619381D01*
X59274297Y-50619381D02*
X59322678Y-50667762D01*
X59322678Y-50667762D02*
X59346869Y-50716143D01*
D12*
%TO.C,D13*%
X73938284Y-47640000D02*
G75*
G02*
X73881716Y-47640000I-28284J0D01*
G01*
X73881716Y-47640000D02*
G75*
G02*
X73938284Y-47640000I28284J0D01*
G01*
D13*
X73730000Y-47760000D02*
X74850000Y-47760000D01*
X74850000Y-48870000D01*
X73730000Y-48870000D01*
X73730000Y-47760000D01*
D12*
%TO.C,D11*%
X71238284Y-47640000D02*
G75*
G02*
X71181716Y-47640000I-28284J0D01*
G01*
X71181716Y-47640000D02*
G75*
G02*
X71238284Y-47640000I28284J0D01*
G01*
D13*
X71030000Y-47760000D02*
X72150000Y-47760000D01*
X72150000Y-48870000D01*
X71030000Y-48870000D01*
X71030000Y-47760000D01*
D12*
%TO.C,D28*%
X94188284Y-47640000D02*
G75*
G02*
X94131716Y-47640000I-28284J0D01*
G01*
X94131716Y-47640000D02*
G75*
G02*
X94188284Y-47640000I28284J0D01*
G01*
D13*
X93980000Y-47760000D02*
X95100000Y-47760000D01*
X95100000Y-48870000D01*
X93980000Y-48870000D01*
X93980000Y-47760000D01*
D12*
%TO.C,D1*%
X57738284Y-47640000D02*
G75*
G02*
X57681716Y-47640000I-28284J0D01*
G01*
X57681716Y-47640000D02*
G75*
G02*
X57738284Y-47640000I28284J0D01*
G01*
D13*
X57530000Y-47760000D02*
X58650000Y-47760000D01*
X58650000Y-48870000D01*
X57530000Y-48870000D01*
X57530000Y-47760000D01*
D12*
%TO.C,D32*%
X99588284Y-47640000D02*
G75*
G02*
X99531716Y-47640000I-28284J0D01*
G01*
X99531716Y-47640000D02*
G75*
G02*
X99588284Y-47640000I28284J0D01*
G01*
D13*
X99380000Y-47760000D02*
X100500000Y-47760000D01*
X100500000Y-48870000D01*
X99380000Y-48870000D01*
X99380000Y-47760000D01*
D14*
%TO.C,R1*%
X58572500Y-50587742D02*
X58572500Y-51062258D01*
X57527500Y-50587742D02*
X57527500Y-51062258D01*
D12*
%TO.C,D26*%
X91488284Y-47640000D02*
G75*
G02*
X91431716Y-47640000I-28284J0D01*
G01*
X91431716Y-47640000D02*
G75*
G02*
X91488284Y-47640000I28284J0D01*
G01*
D13*
X91280000Y-47760000D02*
X92400000Y-47760000D01*
X92400000Y-48870000D01*
X91280000Y-48870000D01*
X91280000Y-47760000D01*
D12*
%TO.C,D24*%
X88788284Y-47640000D02*
G75*
G02*
X88731716Y-47640000I-28284J0D01*
G01*
X88731716Y-47640000D02*
G75*
G02*
X88788284Y-47640000I28284J0D01*
G01*
D13*
X88580000Y-47760000D02*
X89700000Y-47760000D01*
X89700000Y-48870000D01*
X88580000Y-48870000D01*
X88580000Y-47760000D01*
D12*
%TO.C,D44*%
X115788284Y-47640000D02*
G75*
G02*
X115731716Y-47640000I-28284J0D01*
G01*
X115731716Y-47640000D02*
G75*
G02*
X115788284Y-47640000I28284J0D01*
G01*
D13*
X115580000Y-47760000D02*
X116700000Y-47760000D01*
X116700000Y-48870000D01*
X115580000Y-48870000D01*
X115580000Y-47760000D01*
D12*
%TO.C,D49*%
X122538284Y-47640000D02*
G75*
G02*
X122481716Y-47640000I-28284J0D01*
G01*
X122481716Y-47640000D02*
G75*
G02*
X122538284Y-47640000I28284J0D01*
G01*
D13*
X122330000Y-47760000D02*
X123450000Y-47760000D01*
X123450000Y-48870000D01*
X122330000Y-48870000D01*
X122330000Y-47760000D01*
D12*
%TO.C,D43*%
X114438284Y-47640000D02*
G75*
G02*
X114381716Y-47640000I-28284J0D01*
G01*
X114381716Y-47640000D02*
G75*
G02*
X114438284Y-47640000I28284J0D01*
G01*
D13*
X114230000Y-47760000D02*
X115350000Y-47760000D01*
X115350000Y-48870000D01*
X114230000Y-48870000D01*
X114230000Y-47760000D01*
D12*
%TO.C,D30*%
X96888284Y-47640000D02*
G75*
G02*
X96831716Y-47640000I-28284J0D01*
G01*
X96831716Y-47640000D02*
G75*
G02*
X96888284Y-47640000I28284J0D01*
G01*
D13*
X96680000Y-47760000D02*
X97800000Y-47760000D01*
X97800000Y-48870000D01*
X96680000Y-48870000D01*
X96680000Y-47760000D01*
D12*
%TO.C,D15*%
X76638284Y-47640000D02*
G75*
G02*
X76581716Y-47640000I-28284J0D01*
G01*
X76581716Y-47640000D02*
G75*
G02*
X76638284Y-47640000I28284J0D01*
G01*
D13*
X76430000Y-47760000D02*
X77550000Y-47760000D01*
X77550000Y-48870000D01*
X76430000Y-48870000D01*
X76430000Y-47760000D01*
D12*
%TO.C,D5*%
X63138284Y-47640000D02*
G75*
G02*
X63081716Y-47640000I-28284J0D01*
G01*
X63081716Y-47640000D02*
G75*
G02*
X63138284Y-47640000I28284J0D01*
G01*
D13*
X62930000Y-47760000D02*
X64050000Y-47760000D01*
X64050000Y-48870000D01*
X62930000Y-48870000D01*
X62930000Y-47760000D01*
D14*
%TO.C,J1*%
X55930000Y-47220000D02*
X55930000Y-52360000D01*
X53270000Y-52360000D02*
X55930000Y-52360000D01*
X53270000Y-47220000D02*
X55930000Y-47220000D01*
X53270000Y-47220000D02*
X53270000Y-52360000D01*
X53270000Y-45950000D02*
X53270000Y-44620000D01*
X53270000Y-44620000D02*
X54600000Y-44620000D01*
D12*
%TO.C,D50*%
X123888284Y-47640000D02*
G75*
G02*
X123831716Y-47640000I-28284J0D01*
G01*
X123831716Y-47640000D02*
G75*
G02*
X123888284Y-47640000I28284J0D01*
G01*
D13*
X123680000Y-47760000D02*
X124800000Y-47760000D01*
X124800000Y-48870000D01*
X123680000Y-48870000D01*
X123680000Y-47760000D01*
D12*
%TO.C,D45*%
X117138284Y-47640000D02*
G75*
G02*
X117081716Y-47640000I-28284J0D01*
G01*
X117081716Y-47640000D02*
G75*
G02*
X117138284Y-47640000I28284J0D01*
G01*
D13*
X116930000Y-47760000D02*
X118050000Y-47760000D01*
X118050000Y-48870000D01*
X116930000Y-48870000D01*
X116930000Y-47760000D01*
D12*
%TO.C,D37*%
X106338284Y-47640000D02*
G75*
G02*
X106281716Y-47640000I-28284J0D01*
G01*
X106281716Y-47640000D02*
G75*
G02*
X106338284Y-47640000I28284J0D01*
G01*
D13*
X106130000Y-47760000D02*
X107250000Y-47760000D01*
X107250000Y-48870000D01*
X106130000Y-48870000D01*
X106130000Y-47760000D01*
D12*
%TO.C,D8*%
X67188284Y-47640000D02*
G75*
G02*
X67131716Y-47640000I-28284J0D01*
G01*
X67131716Y-47640000D02*
G75*
G02*
X67188284Y-47640000I28284J0D01*
G01*
D13*
X66980000Y-47760000D02*
X68100000Y-47760000D01*
X68100000Y-48870000D01*
X66980000Y-48870000D01*
X66980000Y-47760000D01*
D12*
%TO.C,D4*%
X61788284Y-47640000D02*
G75*
G02*
X61731716Y-47640000I-28284J0D01*
G01*
X61731716Y-47640000D02*
G75*
G02*
X61788284Y-47640000I28284J0D01*
G01*
D13*
X61580000Y-47760000D02*
X62700000Y-47760000D01*
X62700000Y-48870000D01*
X61580000Y-48870000D01*
X61580000Y-47760000D01*
D12*
%TO.C,D21*%
X84738284Y-47640000D02*
G75*
G02*
X84681716Y-47640000I-28284J0D01*
G01*
X84681716Y-47640000D02*
G75*
G02*
X84738284Y-47640000I28284J0D01*
G01*
D13*
X84530000Y-47760000D02*
X85650000Y-47760000D01*
X85650000Y-48870000D01*
X84530000Y-48870000D01*
X84530000Y-47760000D01*
D12*
%TO.C,D33*%
X100938284Y-47640000D02*
G75*
G02*
X100881716Y-47640000I-28284J0D01*
G01*
X100881716Y-47640000D02*
G75*
G02*
X100938284Y-47640000I28284J0D01*
G01*
D13*
X100730000Y-47760000D02*
X101850000Y-47760000D01*
X101850000Y-48870000D01*
X100730000Y-48870000D01*
X100730000Y-47760000D01*
D12*
%TO.C,D31*%
X98238284Y-47640000D02*
G75*
G02*
X98181716Y-47640000I-28284J0D01*
G01*
X98181716Y-47640000D02*
G75*
G02*
X98238284Y-47640000I28284J0D01*
G01*
D13*
X98030000Y-47760000D02*
X99150000Y-47760000D01*
X99150000Y-48870000D01*
X98030000Y-48870000D01*
X98030000Y-47760000D01*
D12*
%TO.C,D42*%
X113088284Y-47640000D02*
G75*
G02*
X113031716Y-47640000I-28284J0D01*
G01*
X113031716Y-47640000D02*
G75*
G02*
X113088284Y-47640000I28284J0D01*
G01*
D13*
X112880000Y-47760000D02*
X114000000Y-47760000D01*
X114000000Y-48870000D01*
X112880000Y-48870000D01*
X112880000Y-47760000D01*
D12*
%TO.C,D47*%
X119838284Y-47640000D02*
G75*
G02*
X119781716Y-47640000I-28284J0D01*
G01*
X119781716Y-47640000D02*
G75*
G02*
X119838284Y-47640000I28284J0D01*
G01*
D13*
X119630000Y-47760000D02*
X120750000Y-47760000D01*
X120750000Y-48870000D01*
X119630000Y-48870000D01*
X119630000Y-47760000D01*
D12*
%TO.C,D36*%
X104988284Y-47640000D02*
G75*
G02*
X104931716Y-47640000I-28284J0D01*
G01*
X104931716Y-47640000D02*
G75*
G02*
X104988284Y-47640000I28284J0D01*
G01*
D13*
X104780000Y-47760000D02*
X105900000Y-47760000D01*
X105900000Y-48870000D01*
X104780000Y-48870000D01*
X104780000Y-47760000D01*
D12*
%TO.C,D20*%
X83388284Y-47640000D02*
G75*
G02*
X83331716Y-47640000I-28284J0D01*
G01*
X83331716Y-47640000D02*
G75*
G02*
X83388284Y-47640000I28284J0D01*
G01*
D13*
X83180000Y-47760000D02*
X84300000Y-47760000D01*
X84300000Y-48870000D01*
X83180000Y-48870000D01*
X83180000Y-47760000D01*
D12*
%TO.C,D39*%
X109038284Y-47640000D02*
G75*
G02*
X108981716Y-47640000I-28284J0D01*
G01*
X108981716Y-47640000D02*
G75*
G02*
X109038284Y-47640000I28284J0D01*
G01*
D13*
X108830000Y-47760000D02*
X109950000Y-47760000D01*
X109950000Y-48870000D01*
X108830000Y-48870000D01*
X108830000Y-47760000D01*
D12*
%TO.C,D22*%
X86088284Y-47640000D02*
G75*
G02*
X86031716Y-47640000I-28284J0D01*
G01*
X86031716Y-47640000D02*
G75*
G02*
X86088284Y-47640000I28284J0D01*
G01*
D13*
X85880000Y-47760000D02*
X87000000Y-47760000D01*
X87000000Y-48870000D01*
X85880000Y-48870000D01*
X85880000Y-47760000D01*
D12*
%TO.C,D12*%
X72588284Y-47640000D02*
G75*
G02*
X72531716Y-47640000I-28284J0D01*
G01*
X72531716Y-47640000D02*
G75*
G02*
X72588284Y-47640000I28284J0D01*
G01*
D13*
X72380000Y-47760000D02*
X73500000Y-47760000D01*
X73500000Y-48870000D01*
X72380000Y-48870000D01*
X72380000Y-47760000D01*
D12*
%TO.C,D25*%
X90138284Y-47640000D02*
G75*
G02*
X90081716Y-47640000I-28284J0D01*
G01*
X90081716Y-47640000D02*
G75*
G02*
X90138284Y-47640000I28284J0D01*
G01*
D13*
X89930000Y-47760000D02*
X91050000Y-47760000D01*
X91050000Y-48870000D01*
X89930000Y-48870000D01*
X89930000Y-47760000D01*
D12*
%TO.C,D27*%
X92838284Y-47640000D02*
G75*
G02*
X92781716Y-47640000I-28284J0D01*
G01*
X92781716Y-47640000D02*
G75*
G02*
X92838284Y-47640000I28284J0D01*
G01*
D13*
X92630000Y-47760000D02*
X93750000Y-47760000D01*
X93750000Y-48870000D01*
X92630000Y-48870000D01*
X92630000Y-47760000D01*
D12*
%TO.C,D35*%
X103638284Y-47640000D02*
G75*
G02*
X103581716Y-47640000I-28284J0D01*
G01*
X103581716Y-47640000D02*
G75*
G02*
X103638284Y-47640000I28284J0D01*
G01*
D13*
X103430000Y-47760000D02*
X104550000Y-47760000D01*
X104550000Y-48870000D01*
X103430000Y-48870000D01*
X103430000Y-47760000D01*
D12*
%TO.C,D38*%
X107688284Y-47640000D02*
G75*
G02*
X107631716Y-47640000I-28284J0D01*
G01*
X107631716Y-47640000D02*
G75*
G02*
X107688284Y-47640000I28284J0D01*
G01*
D13*
X107480000Y-47760000D02*
X108600000Y-47760000D01*
X108600000Y-48870000D01*
X107480000Y-48870000D01*
X107480000Y-47760000D01*
D12*
%TO.C,D14*%
X75288284Y-47640000D02*
G75*
G02*
X75231716Y-47640000I-28284J0D01*
G01*
X75231716Y-47640000D02*
G75*
G02*
X75288284Y-47640000I28284J0D01*
G01*
D13*
X75080000Y-47760000D02*
X76200000Y-47760000D01*
X76200000Y-48870000D01*
X75080000Y-48870000D01*
X75080000Y-47760000D01*
D12*
%TO.C,D34*%
X102288284Y-47640000D02*
G75*
G02*
X102231716Y-47640000I-28284J0D01*
G01*
X102231716Y-47640000D02*
G75*
G02*
X102288284Y-47640000I28284J0D01*
G01*
D13*
X102080000Y-47760000D02*
X103200000Y-47760000D01*
X103200000Y-48870000D01*
X102080000Y-48870000D01*
X102080000Y-47760000D01*
D12*
%TO.C,D16*%
X77988284Y-47640000D02*
G75*
G02*
X77931716Y-47640000I-28284J0D01*
G01*
X77931716Y-47640000D02*
G75*
G02*
X77988284Y-47640000I28284J0D01*
G01*
D13*
X77780000Y-47760000D02*
X78900000Y-47760000D01*
X78900000Y-48870000D01*
X77780000Y-48870000D01*
X77780000Y-47760000D01*
D12*
%TO.C,D29*%
X95538284Y-47640000D02*
G75*
G02*
X95481716Y-47640000I-28284J0D01*
G01*
X95481716Y-47640000D02*
G75*
G02*
X95538284Y-47640000I28284J0D01*
G01*
D13*
X95330000Y-47760000D02*
X96450000Y-47760000D01*
X96450000Y-48870000D01*
X95330000Y-48870000D01*
X95330000Y-47760000D01*
D12*
%TO.C,D41*%
X111738284Y-47640000D02*
G75*
G02*
X111681716Y-47640000I-28284J0D01*
G01*
X111681716Y-47640000D02*
G75*
G02*
X111738284Y-47640000I28284J0D01*
G01*
D13*
X111530000Y-47760000D02*
X112650000Y-47760000D01*
X112650000Y-48870000D01*
X111530000Y-48870000D01*
X111530000Y-47760000D01*
D12*
%TO.C,D19*%
X82038284Y-47640000D02*
G75*
G02*
X81981716Y-47640000I-28284J0D01*
G01*
X81981716Y-47640000D02*
G75*
G02*
X82038284Y-47640000I28284J0D01*
G01*
D13*
X81830000Y-47760000D02*
X82950000Y-47760000D01*
X82950000Y-48870000D01*
X81830000Y-48870000D01*
X81830000Y-47760000D01*
D12*
%TO.C,D46*%
X118488284Y-47640000D02*
G75*
G02*
X118431716Y-47640000I-28284J0D01*
G01*
X118431716Y-47640000D02*
G75*
G02*
X118488284Y-47640000I28284J0D01*
G01*
D13*
X118280000Y-47760000D02*
X119400000Y-47760000D01*
X119400000Y-48870000D01*
X118280000Y-48870000D01*
X118280000Y-47760000D01*
D12*
%TO.C,D6*%
X64488284Y-47640000D02*
G75*
G02*
X64431716Y-47640000I-28284J0D01*
G01*
X64431716Y-47640000D02*
G75*
G02*
X64488284Y-47640000I28284J0D01*
G01*
D13*
X64280000Y-47760000D02*
X65400000Y-47760000D01*
X65400000Y-48870000D01*
X64280000Y-48870000D01*
X64280000Y-47760000D01*
D12*
%TO.C,D10*%
X69888284Y-47640000D02*
G75*
G02*
X69831716Y-47640000I-28284J0D01*
G01*
X69831716Y-47640000D02*
G75*
G02*
X69888284Y-47640000I28284J0D01*
G01*
D13*
X69680000Y-47760000D02*
X70800000Y-47760000D01*
X70800000Y-48870000D01*
X69680000Y-48870000D01*
X69680000Y-47760000D01*
D12*
%TO.C,D40*%
X110388284Y-47640000D02*
G75*
G02*
X110331716Y-47640000I-28284J0D01*
G01*
X110331716Y-47640000D02*
G75*
G02*
X110388284Y-47640000I28284J0D01*
G01*
D13*
X110180000Y-47760000D02*
X111300000Y-47760000D01*
X111300000Y-48870000D01*
X110180000Y-48870000D01*
X110180000Y-47760000D01*
D12*
%TO.C,D3*%
X60438284Y-47640000D02*
G75*
G02*
X60381716Y-47640000I-28284J0D01*
G01*
X60381716Y-47640000D02*
G75*
G02*
X60438284Y-47640000I28284J0D01*
G01*
D13*
X60230000Y-47760000D02*
X61350000Y-47760000D01*
X61350000Y-48870000D01*
X60230000Y-48870000D01*
X60230000Y-47760000D01*
D12*
%TO.C,D18*%
X80688284Y-47640000D02*
G75*
G02*
X80631716Y-47640000I-28284J0D01*
G01*
X80631716Y-47640000D02*
G75*
G02*
X80688284Y-47640000I28284J0D01*
G01*
D13*
X80480000Y-47760000D02*
X81600000Y-47760000D01*
X81600000Y-48870000D01*
X80480000Y-48870000D01*
X80480000Y-47760000D01*
D12*
%TO.C,D23*%
X87438284Y-47640000D02*
G75*
G02*
X87381716Y-47640000I-28284J0D01*
G01*
X87381716Y-47640000D02*
G75*
G02*
X87438284Y-47640000I28284J0D01*
G01*
D13*
X87230000Y-47760000D02*
X88350000Y-47760000D01*
X88350000Y-48870000D01*
X87230000Y-48870000D01*
X87230000Y-47760000D01*
D12*
%TO.C,D9*%
X68538284Y-47640000D02*
G75*
G02*
X68481716Y-47640000I-28284J0D01*
G01*
X68481716Y-47640000D02*
G75*
G02*
X68538284Y-47640000I28284J0D01*
G01*
D13*
X68330000Y-47760000D02*
X69450000Y-47760000D01*
X69450000Y-48870000D01*
X68330000Y-48870000D01*
X68330000Y-47760000D01*
D12*
%TO.C,D17*%
X79338284Y-47640000D02*
G75*
G02*
X79281716Y-47640000I-28284J0D01*
G01*
X79281716Y-47640000D02*
G75*
G02*
X79338284Y-47640000I28284J0D01*
G01*
D13*
X79130000Y-47760000D02*
X80250000Y-47760000D01*
X80250000Y-48870000D01*
X79130000Y-48870000D01*
X79130000Y-47760000D01*
D14*
%TO.C,J2*%
X126670000Y-44580000D02*
X128000000Y-44580000D01*
X126670000Y-45910000D02*
X126670000Y-44580000D01*
X126670000Y-47180000D02*
X126670000Y-52320000D01*
X126670000Y-47180000D02*
X129330000Y-47180000D01*
X126670000Y-52320000D02*
X129330000Y-52320000D01*
X129330000Y-47180000D02*
X129330000Y-52320000D01*
D12*
%TO.C,D7*%
X65838284Y-47640000D02*
G75*
G02*
X65781716Y-47640000I-28284J0D01*
G01*
X65781716Y-47640000D02*
G75*
G02*
X65838284Y-47640000I28284J0D01*
G01*
D13*
X65630000Y-47760000D02*
X66750000Y-47760000D01*
X66750000Y-48870000D01*
X65630000Y-48870000D01*
X65630000Y-47760000D01*
D12*
%TO.C,D48*%
X121188284Y-47640000D02*
G75*
G02*
X121131716Y-47640000I-28284J0D01*
G01*
X121131716Y-47640000D02*
G75*
G02*
X121188284Y-47640000I28284J0D01*
G01*
D13*
X120980000Y-47760000D02*
X122100000Y-47760000D01*
X122100000Y-48870000D01*
X120980000Y-48870000D01*
X120980000Y-47760000D01*
D12*
%TO.C,D2*%
X59088284Y-47640000D02*
G75*
G02*
X59031716Y-47640000I-28284J0D01*
G01*
X59031716Y-47640000D02*
G75*
G02*
X59088284Y-47640000I28284J0D01*
G01*
D13*
X58880000Y-47760000D02*
X60000000Y-47760000D01*
X60000000Y-48870000D01*
X58880000Y-48870000D01*
X58880000Y-47760000D01*
%TD*%
M02*
